<svg width="24" height="24" viewBox="0 0 24 24" fill="none" xmlns="http://www.w3.org/2000/svg">
<g clip-path="url(#clip0_151_888)">
<path d="M17 5.31714C17.925 5.15014 18.894 5.05314 19.956 5.01714C20.524 4.99814 21 5.44814 21 6.01614V17.8531C21 18.3951 20.567 18.8431 20.026 18.8511C16.934 18.8981 14.606 19.4681 12 21.0001C9.394 19.4681 7.066 18.8981 3.974 18.8521C3.433 18.8441 3 18.3951 3 17.8531V6.01614C3 5.45714 3.459 4.99814 4.017 5.01614C7.088 5.11514 9.406 5.69314 12 7.14614" stroke="white" stroke-width="1.5" stroke-linecap="round" stroke-linejoin="round"/>
<path d="M17 15.2381V3.01212C17 2.28312 16.234 1.77412 15.583 2.10112C13.827 2.98112 12.347 4.77012 12 6.61212V21.0001C12.396 18.9011 14.261 16.8711 16.331 16.1761C16.733 16.0411 17 15.6621 17 15.2381Z" stroke="white" stroke-width="1.5" stroke-linecap="round" stroke-linejoin="round"/>
</g>
<defs>
<clipPath id="clip0_151_888">
<rect width="24" height="24" fill="white"/>
</clipPath>
</defs>
</svg>
