<svg width="24" height="24" viewBox="0 0 24 24" fill="none" xmlns="http://www.w3.org/2000/svg">
<g clip-path="url(#clip0_151_898)">
<path d="M9.071 19.0709H6.929C5.824 19.0709 4.929 18.1759 4.929 17.0709V15.7569C4.929 15.2269 4.718 14.7179 4.343 14.3429L3.414 13.4139C2.633 12.6329 2.633 11.3669 3.414 10.5859L4.343 9.65687C4.718 9.28187 4.929 8.77288 4.929 8.24288V6.92887C4.929 5.82387 5.824 4.92887 6.929 4.92887H8.243C8.773 4.92887 9.282 4.71787 9.657 4.34287L10.586 3.41387C11.367 2.63287 12.633 2.63287 13.414 3.41387L14.343 4.34287C14.718 4.71787 15.227 4.92887 15.757 4.92887H17.071C18.176 4.92887 19.071 5.82387 19.071 6.92887V8.24288C19.071 8.77288 19.282 9.28187 19.657 9.65687L20.586 10.5859C21.367 11.3669 21.367 12.6329 20.586 13.4139L19.657 14.3429C19.282 14.7179 19.071 15.2269 19.071 15.7569V17.0709C19.071 18.1759 18.176 19.0709 17.071 19.0709H15.757C15.227 19.0709 14.718 19.2819 14.343 19.6569L13.414 20.5859C12.633 21.3669 11.367 21.3669 10.586 20.5859L9.071 19.0709Z" stroke="white" stroke-width="1.5" stroke-linecap="round" stroke-linejoin="round"/>
<path d="M13.643 8.9707C15.054 8.9707 16 10.2857 16 11.5097C16 13.9947 12.071 16.0297 12 16.0297C11.929 16.0297 8 13.9947 8 11.5097C8 10.2857 8.946 8.9707 10.357 8.9707C11.164 8.9707 11.694 9.3697 12 9.7257C12.306 9.3697 12.836 8.9707 13.643 8.9707Z" stroke="white" stroke-width="1.5" stroke-linecap="round" stroke-linejoin="round"/>
</g>
<defs>
<clipPath id="clip0_151_898">
<rect width="24" height="24" fill="white"/>
</clipPath>
</defs>
</svg>
