<svg width="48" height="15" viewBox="0 0 48 15" fill="none" xmlns="http://www.w3.org/2000/svg">
<path d="M46.5026 11.1419C46.4203 11.1419 46.2381 11.1184 45.956 11.0714C45.4036 10.9891 44.8865 10.948 44.4046 10.948H40.1735C39.6446 10.948 39.3801 10.7893 39.3801 10.4719C39.3801 10.3544 39.4095 10.2193 39.4683 10.0665C39.5388 9.91367 39.6211 9.77264 39.7151 9.64335L43.5936 4.08997C43.6524 4.0077 43.6818 3.93131 43.6818 3.86079C43.6818 3.7315 43.6113 3.66686 43.4702 3.66686H42.1833C41.9482 3.66686 41.7543 3.73738 41.6015 3.87842C41.4604 4.01945 41.3135 4.2604 41.1607 4.60124C41.0432 4.87156 40.9139 5.05961 40.7729 5.16539C40.6318 5.27117 40.4555 5.32406 40.244 5.32406C40.0677 5.32406 39.9208 5.27705 39.8032 5.18302C39.6975 5.08899 39.6446 4.90682 39.6446 4.6365C39.6446 4.38968 39.7033 4.05471 39.8209 3.6316C39.9619 3.14972 40.0736 2.803 40.1558 2.59144C40.2499 2.36813 40.3498 2.22122 40.4555 2.1507C40.5731 2.08018 40.7317 2.04492 40.9315 2.04492C41.0138 2.04492 41.196 2.06843 41.4781 2.11544C42.0305 2.19771 42.5476 2.23885 43.0295 2.23885H47.4193C47.6074 2.23885 47.7484 2.29174 47.8424 2.39752C47.9364 2.49154 47.9835 2.59144 47.9835 2.69722C47.9835 2.86177 47.9071 3.06157 47.7543 3.29663L43.7699 9.11446C43.7229 9.20848 43.6994 9.279 43.6994 9.32601C43.6994 9.4553 43.7699 9.51994 43.911 9.51994H45.2508C45.4859 9.51994 45.674 9.44942 45.815 9.30839C45.9678 9.16735 46.1206 8.92641 46.2734 8.58556C46.3909 8.31524 46.5202 8.12719 46.6612 8.02141C46.8023 7.91563 46.9786 7.86274 47.1901 7.86274C47.3664 7.86274 47.5074 7.90976 47.6132 8.00378C47.7308 8.09781 47.7895 8.27998 47.7895 8.55031C47.7895 8.79712 47.7308 9.13209 47.6132 9.5552C47.4722 10.0488 47.3547 10.4014 47.2606 10.613C47.1784 10.8245 47.0785 10.9656 46.9609 11.0361C46.8551 11.1066 46.7024 11.1419 46.5026 11.1419Z" fill="#EB4D2A"/>
<path d="M35.1586 11.1595C34.2184 11.1595 33.3898 10.9538 32.6728 10.5424C31.9676 10.1311 31.4211 9.57866 31.0333 8.88522C30.6572 8.18003 30.4691 7.4102 30.4691 6.57572C30.4691 5.68248 30.6866 4.89502 31.1214 4.21333C31.5563 3.53165 32.1381 3.00275 32.8668 2.62665C33.5955 2.25055 34.3829 2.0625 35.2292 2.0625C36.0401 2.0625 36.7336 2.22704 37.3095 2.55613C37.8971 2.88522 38.3379 3.29658 38.6317 3.79022C38.9373 4.2721 39.0901 4.73635 39.0901 5.18297C39.0901 5.6766 38.9725 6.03507 38.7375 6.25839C38.5142 6.46994 38.1146 6.61686 37.5387 6.69913L34.4887 7.13987C34.3477 7.15163 34.2478 7.18101 34.189 7.22802C34.142 7.26328 34.1185 7.32792 34.1185 7.42195C34.1185 7.64526 34.2008 7.88032 34.3653 8.12714C34.5416 8.37396 34.7943 8.58551 35.1234 8.76181C35.4525 8.93811 35.8286 9.02626 36.2517 9.02626C36.7218 9.02626 37.139 8.93811 37.5034 8.76181C37.8677 8.57376 38.1498 8.3622 38.3496 8.12714C38.4436 8.03311 38.5435 7.9861 38.6493 7.9861C38.8139 7.9861 38.9314 8.03311 39.0019 8.12714C39.0842 8.22116 39.1253 8.3387 39.1253 8.47973C39.1253 8.56201 39.1195 8.62077 39.1077 8.65603C38.9196 9.32596 38.4907 9.91362 37.8207 10.419C37.1626 10.9126 36.2752 11.1595 35.1586 11.1595ZM35.5112 5.51793C35.711 5.48267 35.8521 5.42391 35.9343 5.34164C36.0166 5.24761 36.0578 5.1242 36.0578 4.97141C36.0578 4.75985 35.999 4.53654 35.8815 4.30148C35.7757 4.05466 35.6288 3.84898 35.4407 3.68444C35.2527 3.51989 35.047 3.43762 34.8237 3.43762C34.095 3.43762 33.7306 3.99002 33.7306 5.09482C33.7306 5.36514 33.7541 5.55319 33.8011 5.65897C33.8482 5.753 33.9246 5.80001 34.0303 5.80001L34.2419 5.76475L35.5112 5.51793Z" fill="#EB4D2A"/>
<path d="M27.9132 8.95592C29.4176 9.32027 30.1698 10.0548 30.1698 11.1596C30.1698 12.0999 29.7291 12.8403 28.8476 13.381C27.9661 13.9216 26.8025 14.192 25.3569 14.192C24.7927 14.192 24.2227 14.1273 23.6468 13.998C23.0826 13.8805 22.5773 13.7042 22.1306 13.4691C21.6723 13.2341 21.3079 12.952 21.0376 12.6229C20.779 12.2938 20.6497 11.9236 20.6497 11.5122C20.6497 11.0891 20.779 10.7659 21.0376 10.5426C21.3079 10.3193 21.637 10.2076 22.0249 10.2076C22.4245 10.2076 22.8065 10.3193 23.1708 10.5426C23.5351 10.7659 23.8055 11.0832 23.9818 11.4946C24.1346 11.859 24.352 12.1528 24.6341 12.3761C24.9984 12.6699 25.3863 12.8168 25.7976 12.8168C26.1502 12.8051 26.4441 12.6876 26.6791 12.4642C26.9142 12.2409 27.0317 11.9295 27.0317 11.5299C27.0317 10.9775 26.8437 10.5015 26.4676 10.1019C26.1032 9.70225 25.6155 9.48482 25.0043 9.44956C24.1698 9.44956 23.4176 9.29676 22.7477 8.99118C22.0778 8.67385 21.5489 8.23898 21.161 7.68658C20.7732 7.12243 20.5792 6.476 20.5792 5.7473C20.5792 5.01861 20.779 4.37806 21.1786 3.82566C21.5782 3.26151 22.1365 2.82664 22.8535 2.52106C23.5704 2.20372 24.4049 2.04505 25.3569 2.04505C25.9798 2.04505 26.5851 2.12145 27.1728 2.27424C27.3138 2.29775 27.4078 2.3095 27.4548 2.3095C27.7134 2.3095 27.8897 2.21547 27.9837 2.02742C28.0778 1.82762 28.1248 1.54554 28.1248 1.1812C28.1248 0.79334 28.254 0.499511 28.5126 0.299706C28.7712 0.0999022 29.0709 0 29.4117 0C29.7643 0 30.064 0.117532 30.3109 0.352596C30.5694 0.575907 30.6987 0.840353 30.6987 1.14593C30.6987 1.63957 30.5459 2.06856 30.2403 2.43291C29.9465 2.79726 29.5293 3.05583 28.9886 3.20862C29.7408 3.8903 30.1169 4.73653 30.1169 5.7473C30.1169 6.476 29.923 7.11655 29.5351 7.66895C29.159 8.22135 28.6184 8.65034 27.9132 8.95592ZM25.0396 3.43781C24.7105 3.43781 24.4401 3.57884 24.2286 3.86092C24.0288 4.143 23.9289 4.5191 23.9289 4.98922C23.9289 5.90597 24.0817 6.64642 24.3873 7.21058C24.7046 7.76297 25.1159 8.03917 25.6213 8.03917C25.9622 8.03917 26.2325 7.89814 26.4323 7.61606C26.6439 7.33398 26.7496 6.95788 26.7496 6.48775C26.7496 5.57101 26.591 4.83643 26.2736 4.28403C25.9681 3.71988 25.5567 3.43781 25.0396 3.43781Z" fill="#EB4D2A"/>
<path d="M13.8699 11.1596C12.8121 11.1596 12.0481 10.9245 11.578 10.4544C11.1079 9.97249 10.8728 9.36133 10.8728 8.62088C10.8728 7.77465 11.243 7.09296 11.9835 6.57582C12.7239 6.04693 13.6877 5.73547 14.8748 5.64145C15.2509 5.60619 15.5271 5.56505 15.7034 5.51804C15.8914 5.47103 16.0148 5.40051 16.0736 5.30648C16.1441 5.2007 16.1676 5.05379 16.1441 4.86574L16.1088 4.56603C16.0618 4.18993 15.9619 3.90785 15.8091 3.7198C15.6681 3.53175 15.4272 3.43773 15.0863 3.43773C14.816 3.43773 14.5692 3.52 14.3459 3.68454C14.1343 3.84909 13.9874 4.0959 13.9051 4.42499C13.8111 4.78934 13.6524 5.05966 13.4291 5.23596C13.2058 5.41226 12.8943 5.50041 12.4947 5.50041C12.2479 5.50041 12.0246 5.41226 11.8248 5.23596C11.625 5.05966 11.5251 4.8246 11.5251 4.53077C11.5251 4.04889 11.719 3.6199 12.1069 3.2438C12.5065 2.85594 13.0354 2.55624 13.6936 2.34468C14.3635 2.13312 15.0863 2.02734 15.862 2.02734C16.7083 2.02734 17.3723 2.15075 17.8542 2.39757C18.3478 2.63263 18.7063 2.97348 18.9296 3.4201C19.1529 3.86672 19.3116 4.43087 19.4056 5.11255L19.8111 8.14487C19.8581 8.45046 19.9169 8.65614 19.9874 8.76191C20.0697 8.85594 20.1813 8.90295 20.3224 8.90295C20.4516 8.90295 20.5692 8.87945 20.675 8.83243C20.7925 8.77367 20.8806 8.74429 20.9394 8.74429C21.2097 8.74429 21.3449 8.90883 21.3449 9.23792C21.3449 9.51999 21.245 9.80795 21.0452 10.1018C20.8571 10.3839 20.5927 10.6189 20.2518 10.807C19.9227 10.995 19.5584 11.089 19.1588 11.089C18.6181 11.089 18.195 10.9891 17.8894 10.7893C17.5956 10.5778 17.3723 10.2781 17.2195 9.89022C17.1725 9.76094 17.1137 9.69629 17.0432 9.69629C17.008 9.69629 16.8904 9.83145 16.6906 10.1018C16.5026 10.3603 16.1794 10.6013 15.721 10.8246C15.2744 11.0479 14.6573 11.1596 13.8699 11.1596ZM15.3684 9.39659C15.7092 9.39659 15.9913 9.26143 16.2146 8.9911C16.4379 8.70903 16.5496 8.33292 16.5496 7.8628C16.5496 7.79228 16.5378 7.65124 16.5143 7.43968L16.4967 7.31627C16.4614 7.0577 16.3733 6.88728 16.2323 6.80501C16.103 6.72274 15.8679 6.6816 15.5271 6.6816C14.6221 6.6816 14.1696 7.14585 14.1696 8.07435C14.1696 8.50922 14.2753 8.83831 14.4869 9.06162C14.7102 9.28493 15.004 9.39659 15.3684 9.39659Z" fill="#EB4D2A"/>
<path d="M2.32713 14.1037C1.44564 14.1037 0.846229 14.045 0.528893 13.9274C0.22331 13.8217 0.0705191 13.6395 0.0705191 13.3809C0.0705191 13.1341 0.199804 12.9402 0.458374 12.7991C0.799216 12.6228 1.01077 12.3936 1.09305 12.1116C1.17532 11.8295 1.21645 11.3946 1.21645 10.807V5.14781C1.21645 4.85398 1.18119 4.6248 1.11068 4.46025C1.05191 4.29571 0.934378 4.19581 0.75808 4.16055C0.511263 4.11353 0.323212 4.05477 0.193927 3.98425C0.0646425 3.91373 0 3.79032 0 3.61402C0 3.42597 0.0646425 3.28493 0.193927 3.19091C0.334966 3.08513 0.558276 2.97347 0.863858 2.85594C2.1097 2.37406 3.03232 2.13312 3.63173 2.13312C3.93731 2.13312 4.15475 2.18601 4.28403 2.29179C4.41332 2.38582 4.47796 2.56799 4.47796 2.83831V3.40247C4.47796 3.6963 4.51322 3.84321 4.58374 3.84321C4.60725 3.84321 4.73653 3.67867 4.97159 3.34958C5.20666 3.02049 5.53575 2.72078 5.95886 2.45046C6.38198 2.16838 6.89911 2.02734 7.51028 2.02734C8.09794 2.02734 8.63859 2.19189 9.13222 2.52098C9.6376 2.83831 10.0372 3.30844 10.331 3.93136C10.6366 4.55428 10.7894 5.29473 10.7894 6.15271C10.7894 7.09296 10.5896 7.94507 10.19 8.70903C9.80215 9.47298 9.26738 10.0724 8.5857 10.5073C7.91576 10.9421 7.17531 11.1596 6.36435 11.1596C5.78844 11.1596 5.30656 11.0126 4.9187 10.7188C4.74241 10.5895 4.63663 10.5249 4.60137 10.5249C4.5191 10.5249 4.47796 10.6365 4.47796 10.8599V10.9656C4.47796 11.471 4.5191 11.8471 4.60137 12.0939C4.68364 12.3525 4.88932 12.5817 5.21841 12.7815C5.35945 12.8638 5.46523 12.946 5.53575 13.0283C5.60627 13.1223 5.64152 13.2399 5.64152 13.3809C5.64152 13.5572 5.58864 13.6924 5.48286 13.7864C5.37708 13.8922 5.15964 13.9686 4.83056 14.0156C4.51322 14.0744 4.04309 14.1037 3.42017 14.1037H2.32713ZM6.08227 9.80207C6.45837 9.80207 6.77571 9.63165 7.03428 9.29081C7.29285 8.94997 7.42213 8.45046 7.42213 7.79228C7.42213 6.79326 7.28109 5.93528 6.99902 5.21833C6.71694 4.50139 6.31733 4.14292 5.80019 4.14292C5.37708 4.14292 5.04799 4.33097 4.81293 4.70707C4.58962 5.07142 4.47796 5.61206 4.47796 6.32901V6.76975C4.47796 7.75702 4.62488 8.50922 4.9187 9.02636C5.22429 9.5435 5.61214 9.80207 6.08227 9.80207Z" fill="#EB4D2A"/>
</svg>
