<svg width="225" height="51" viewBox="0 0 225 51" fill="none" xmlns="http://www.w3.org/2000/svg">
<rect width="64" height="2" rx="1" fill="#EB4D2A"/>
<path d="M17.2042 48V39.2727H18.7851V42.9673H22.8292V39.2727H24.4144V48H22.8292V44.2926H18.7851V48H17.2042ZM28.3208 48.1278C27.6816 48.1278 27.1276 47.9872 26.6588 47.706C26.1901 47.4247 25.8265 47.0312 25.5679 46.5256C25.3123 46.0199 25.1844 45.429 25.1844 44.7528C25.1844 44.0767 25.3123 43.4844 25.5679 42.9759C25.8265 42.4673 26.1901 42.0724 26.6588 41.7912C27.1276 41.5099 27.6816 41.3693 28.3208 41.3693C28.96 41.3693 29.514 41.5099 29.9827 41.7912C30.4515 42.0724 30.8137 42.4673 31.0694 42.9759C31.3279 43.4844 31.4571 44.0767 31.4571 44.7528C31.4571 45.429 31.3279 46.0199 31.0694 46.5256C30.8137 47.0312 30.4515 47.4247 29.9827 47.706C29.514 47.9872 28.96 48.1278 28.3208 48.1278ZM28.3293 46.892C28.6759 46.892 28.9657 46.7969 29.1986 46.6065C29.4316 46.4134 29.6049 46.1548 29.7185 45.831C29.835 45.5071 29.8932 45.1463 29.8932 44.7486C29.8932 44.348 29.835 43.9858 29.7185 43.6619C29.6049 43.3352 29.4316 43.0753 29.1986 42.8821C28.9657 42.6889 28.6759 42.5923 28.3293 42.5923C27.9742 42.5923 27.6787 42.6889 27.4429 42.8821C27.21 43.0753 27.0353 43.3352 26.9188 43.6619C26.8051 43.9858 26.7483 44.348 26.7483 44.7486C26.7483 45.1463 26.8051 45.5071 26.9188 45.831C27.0353 46.1548 27.21 46.4134 27.4429 46.6065C27.6787 46.7969 27.9742 46.892 28.3293 46.892ZM32.1664 48V41.4545H33.6409V42.5668H33.7176C33.8539 42.1918 34.0798 41.8991 34.3951 41.6889C34.7105 41.4759 35.0869 41.3693 35.5244 41.3693C35.9676 41.3693 36.3412 41.4773 36.6451 41.6932C36.952 41.9062 37.1679 42.1974 37.2929 42.5668H37.361C37.5059 42.2031 37.7502 41.9134 38.094 41.6974C38.4406 41.4787 38.8511 41.3693 39.3255 41.3693C39.9278 41.3693 40.4193 41.5597 40.8 41.9403C41.1806 42.321 41.371 42.8764 41.371 43.6065V48H39.8241V43.8452C39.8241 43.4389 39.7162 43.142 39.5002 42.9545C39.2843 42.7642 39.0201 42.669 38.7076 42.669C38.3355 42.669 38.0443 42.7855 37.8341 43.0185C37.6267 43.2486 37.523 43.5483 37.523 43.9176V48H36.0102V43.7812C36.0102 43.4432 35.9079 43.1733 35.7034 42.9716C35.5017 42.7699 35.2375 42.669 34.9108 42.669C34.6892 42.669 34.4875 42.7259 34.3056 42.8395C34.1238 42.9503 33.9789 43.108 33.871 43.3125C33.763 43.5142 33.7091 43.75 33.7091 44.0199V48H32.1664ZM45.2337 48.1278C44.5775 48.1278 44.0107 47.9915 43.5334 47.7188C43.059 47.4432 42.6939 47.054 42.4382 46.5511C42.1826 46.0455 42.0547 45.4503 42.0547 44.7656C42.0547 44.0923 42.1826 43.5014 42.4382 42.9929C42.6968 42.4815 43.0576 42.0838 43.5206 41.7997C43.9837 41.5128 44.5277 41.3693 45.1527 41.3693C45.5561 41.3693 45.9368 41.4347 46.2948 41.5653C46.6556 41.6932 46.9738 41.892 47.2493 42.1619C47.5277 42.4318 47.7465 42.7756 47.9056 43.1932C48.0647 43.608 48.1442 44.1023 48.1442 44.6761V45.1491H42.7792V44.1094H46.6655C46.6627 43.8139 46.5988 43.5511 46.4738 43.321C46.3488 43.0881 46.174 42.9048 45.9496 42.7713C45.728 42.6378 45.4695 42.571 45.174 42.571C44.8587 42.571 44.5817 42.6477 44.3431 42.8011C44.1044 42.9517 43.9184 43.1506 43.7848 43.3977C43.6542 43.642 43.5874 43.9105 43.5846 44.2031V45.1108C43.5846 45.4915 43.6542 45.8182 43.7934 46.0909C43.9326 46.3608 44.1272 46.5682 44.3772 46.7131C44.6272 46.8551 44.9198 46.9261 45.255 46.9261C45.4794 46.9261 45.6826 46.8949 45.8644 46.8324C46.0462 46.767 46.2039 46.6719 46.3374 46.5469C46.4709 46.4219 46.5718 46.267 46.64 46.0824L48.0803 46.2443C47.9894 46.625 47.8161 46.9574 47.5604 47.2415C47.3076 47.5227 46.9837 47.7415 46.5888 47.8977C46.1939 48.0511 45.7422 48.1278 45.2337 48.1278Z" fill="#EB4D2A"/>
<g clip-path="url(#clip0_0_1850)">
<path d="M23.734 17.764L30.1021 12.5543C31.2073 11.6502 32.7966 11.6503 33.9017 12.5547L40.267 17.764C40.731 18.143 41 18.712 41 19.311V27C41 28.105 40.105 29 39 29H25C23.895 29 23 28.105 23 27V19.312C23 18.712 23.269 18.143 23.734 17.764Z" fill="#FE772A" fill-opacity="0.26" stroke="#EB4D2A" stroke-width="1.5" stroke-linecap="round" stroke-linejoin="round"/>
</g>
<path d="M94.7446 42.2173H93.1509C93.1054 41.956 93.0216 41.7244 92.8995 41.5227C92.7773 41.3182 92.6253 41.1449 92.4435 41.0028C92.2617 40.8608 92.0543 40.7543 91.8213 40.6832C91.5912 40.6094 91.3426 40.5724 91.0756 40.5724C90.6012 40.5724 90.1807 40.6918 89.8142 40.9304C89.4478 41.1662 89.1608 41.5128 88.9534 41.9702C88.7461 42.4247 88.6424 42.9801 88.6424 43.6364C88.6424 44.304 88.7461 44.8665 88.9534 45.3239C89.1637 45.7784 89.4506 46.1222 89.8142 46.3551C90.1807 46.5852 90.5998 46.7003 91.0713 46.7003C91.3327 46.7003 91.577 46.6662 91.8043 46.598C92.0344 46.527 92.2404 46.4233 92.4222 46.2869C92.6069 46.1506 92.7617 45.983 92.8867 45.7841C93.0145 45.5852 93.1026 45.358 93.1509 45.1023L94.7446 45.1108C94.685 45.5256 94.5557 45.9148 94.3569 46.2784C94.1608 46.642 93.9037 46.9631 93.5855 47.2415C93.2674 47.517 92.8952 47.733 92.4691 47.8892C92.0429 48.0426 91.5699 48.1193 91.05 48.1193C90.283 48.1193 89.5983 47.9418 88.9961 47.5866C88.3938 47.2315 87.9194 46.7188 87.5728 46.0483C87.2262 45.3778 87.0529 44.5739 87.0529 43.6364C87.0529 42.696 87.2276 41.892 87.577 41.2244C87.9265 40.554 88.4023 40.0412 89.0046 39.6861C89.6069 39.331 90.2887 39.1534 91.05 39.1534C91.5358 39.1534 91.9875 39.2216 92.4051 39.358C92.8228 39.4943 93.1949 39.6946 93.5216 39.9588C93.8483 40.2202 94.1168 40.5412 94.327 40.9219C94.5401 41.2997 94.6793 41.7315 94.7446 42.2173ZM98.3794 48.1278C97.7402 48.1278 97.1862 47.9872 96.7174 47.706C96.2487 47.4247 95.885 47.0312 95.6265 46.5256C95.3708 46.0199 95.243 45.429 95.243 44.7528C95.243 44.0767 95.3708 43.4844 95.6265 42.9759C95.885 42.4673 96.2487 42.0724 96.7174 41.7912C97.1862 41.5099 97.7402 41.3693 98.3794 41.3693C99.0186 41.3693 99.5725 41.5099 100.041 41.7912C100.51 42.0724 100.872 42.4673 101.128 42.9759C101.386 43.4844 101.516 44.0767 101.516 44.7528C101.516 45.429 101.386 46.0199 101.128 46.5256C100.872 47.0312 100.51 47.4247 100.041 47.706C99.5725 47.9872 99.0186 48.1278 98.3794 48.1278ZM98.3879 46.892C98.7345 46.892 99.0243 46.7969 99.2572 46.6065C99.4902 46.4134 99.6635 46.1548 99.7771 45.831C99.8936 45.5071 99.9518 45.1463 99.9518 44.7486C99.9518 44.348 99.8936 43.9858 99.7771 43.6619C99.6635 43.3352 99.4902 43.0753 99.2572 42.8821C99.0243 42.6889 98.7345 42.5923 98.3879 42.5923C98.0328 42.5923 97.7373 42.6889 97.5015 42.8821C97.2686 43.0753 97.0939 43.3352 96.9774 43.6619C96.8637 43.9858 96.8069 44.348 96.8069 44.7486C96.8069 45.1463 96.8637 45.5071 96.9774 45.831C97.0939 46.1548 97.2686 46.4134 97.5015 46.6065C97.7373 46.7969 98.0328 46.892 98.3879 46.892ZM102.225 48V41.4545H103.699V42.5668H103.776C103.913 42.1918 104.138 41.8991 104.454 41.6889C104.769 41.4759 105.145 41.3693 105.583 41.3693C106.026 41.3693 106.4 41.4773 106.704 41.6932C107.011 41.9062 107.226 42.1974 107.351 42.5668H107.42C107.565 42.2031 107.809 41.9134 108.153 41.6974C108.499 41.4787 108.91 41.3693 109.384 41.3693C109.986 41.3693 110.478 41.5597 110.859 41.9403C111.239 42.321 111.43 42.8764 111.43 43.6065V48H109.883V43.8452C109.883 43.4389 109.775 43.142 109.559 42.9545C109.343 42.7642 109.079 42.669 108.766 42.669C108.394 42.669 108.103 42.7855 107.893 43.0185C107.685 43.2486 107.582 43.5483 107.582 43.9176V48H106.069V43.7812C106.069 43.4432 105.967 43.1733 105.762 42.9716C105.56 42.7699 105.296 42.669 104.969 42.669C104.748 42.669 104.546 42.7259 104.364 42.8395C104.182 42.9503 104.038 43.108 103.93 43.3125C103.822 43.5142 103.768 43.75 103.768 44.0199V48H102.225ZM112.395 48V41.4545H113.869V42.5668H113.946C114.082 42.1918 114.308 41.8991 114.623 41.6889C114.939 41.4759 115.315 41.3693 115.753 41.3693C116.196 41.3693 116.569 41.4773 116.873 41.6932C117.18 41.9062 117.396 42.1974 117.521 42.5668H117.589C117.734 42.2031 117.978 41.9134 118.322 41.6974C118.669 41.4787 119.079 41.3693 119.554 41.3693C120.156 41.3693 120.647 41.5597 121.028 41.9403C121.409 42.321 121.599 42.8764 121.599 43.6065V48H120.052V43.8452C120.052 43.4389 119.944 43.142 119.728 42.9545C119.512 42.7642 119.248 42.669 118.936 42.669C118.564 42.669 118.272 42.7855 118.062 43.0185C117.855 43.2486 117.751 43.5483 117.751 43.9176V48H116.238V43.7812C116.238 43.4432 116.136 43.1733 115.931 42.9716C115.73 42.7699 115.466 42.669 115.139 42.669C114.917 42.669 114.716 42.7259 114.534 42.8395C114.352 42.9503 114.207 43.108 114.099 43.3125C113.991 43.5142 113.937 43.75 113.937 44.0199V48H112.395ZM126.736 45.2472V41.4545H128.279V48H126.783V46.8366H126.715C126.567 47.2031 126.324 47.5028 125.986 47.7358C125.651 47.9687 125.237 48.0852 124.746 48.0852C124.317 48.0852 123.938 47.9901 123.608 47.7997C123.281 47.6065 123.026 47.3267 122.841 46.9602C122.656 46.5909 122.564 46.1449 122.564 45.6222V41.4545H124.107V45.3835C124.107 45.7983 124.22 46.1278 124.448 46.3722C124.675 46.6165 124.973 46.7386 125.343 46.7386C125.57 46.7386 125.79 46.6832 126.003 46.5724C126.216 46.4616 126.391 46.2969 126.527 46.0781C126.666 45.8565 126.736 45.5795 126.736 45.2472ZM130.807 44.1648V48H129.265V41.4545H130.739V42.5668H130.816C130.967 42.2003 131.207 41.9091 131.536 41.6932C131.869 41.4773 132.279 41.3693 132.768 41.3693C133.219 41.3693 133.613 41.4659 133.948 41.6591C134.286 41.8523 134.548 42.1321 134.732 42.4986C134.92 42.8651 135.012 43.3097 135.009 43.8324V48H133.467V44.071C133.467 43.6335 133.353 43.2912 133.126 43.044C132.901 42.7969 132.59 42.6733 132.192 42.6733C131.923 42.6733 131.682 42.733 131.472 42.8523C131.265 42.9687 131.102 43.1378 130.982 43.3594C130.866 43.581 130.807 43.8494 130.807 44.1648ZM135.977 48V41.4545H137.52V48H135.977ZM136.753 40.5256C136.509 40.5256 136.298 40.4446 136.122 40.2827C135.946 40.1179 135.858 39.9205 135.858 39.6903C135.858 39.4574 135.946 39.2599 136.122 39.098C136.298 38.9332 136.509 38.8509 136.753 38.8509C137 38.8509 137.21 38.9332 137.384 39.098C137.56 39.2599 137.648 39.4574 137.648 39.6903C137.648 39.9205 137.56 40.1179 137.384 40.2827C137.21 40.4446 137 40.5256 136.753 40.5256ZM141.775 41.4545V42.6477H138.012V41.4545H141.775ZM138.941 39.8864H140.484V46.0312C140.484 46.2386 140.515 46.3977 140.577 46.5085C140.643 46.6165 140.728 46.6903 140.833 46.7301C140.938 46.7699 141.055 46.7898 141.182 46.7898C141.279 46.7898 141.367 46.7827 141.447 46.7685C141.529 46.7543 141.592 46.7415 141.634 46.7301L141.894 47.9361C141.812 47.9645 141.694 47.9957 141.54 48.0298C141.39 48.0639 141.205 48.0838 140.986 48.0895C140.6 48.1009 140.252 48.0426 139.942 47.9148C139.633 47.7841 139.387 47.5824 139.205 47.3097C139.026 47.0369 138.938 46.696 138.941 46.2869V39.8864ZM143.424 50.4545C143.213 50.4545 143.019 50.4375 142.84 50.4034C142.664 50.3722 142.523 50.3352 142.418 50.2926L142.776 49.0909C143 49.1563 143.201 49.1875 143.377 49.1847C143.553 49.1818 143.708 49.1264 143.841 49.0185C143.978 48.9134 144.093 48.7372 144.186 48.4901L144.319 48.1364L141.945 41.4545H143.581L145.09 46.3977H145.158L146.671 41.4545H148.311L145.691 48.7926C145.569 49.1392 145.407 49.4361 145.205 49.6832C145.003 49.9332 144.756 50.1236 144.463 50.2543C144.174 50.3878 143.827 50.4545 143.424 50.4545Z" fill="#1E1D19"/>
<g clip-path="url(#clip1_0_1850)">
<path d="M114.92 25.5007C115.701 26.2818 115.701 27.5481 114.92 28.3291C114.139 29.1102 112.873 29.1102 112.092 28.3291C111.311 27.5481 111.311 26.2818 112.092 25.5007C112.873 24.7197 114.139 24.7197 114.92 25.5007Z" stroke="#1E1D19" stroke-width="1.5" stroke-linecap="round" stroke-linejoin="round"/>
<path d="M123.908 25.5007C124.689 26.2818 124.689 27.5481 123.908 28.3291C123.127 29.1102 121.861 29.1102 121.08 28.3291C120.299 27.5481 120.299 26.2818 121.08 25.5007C121.861 24.7197 123.127 24.7197 123.908 25.5007Z" stroke="#1E1D19" stroke-width="1.5" stroke-linecap="round" stroke-linejoin="round"/>
<path d="M112.143 16.9537C112.924 17.7348 112.924 19.0011 112.143 19.7821C111.362 20.5632 110.096 20.5632 109.315 19.7821C108.534 19.0011 108.534 17.7348 109.315 16.9537C110.096 16.1727 111.362 16.1727 112.143 16.9537Z" stroke="#1E1D19" stroke-width="1.5" stroke-linecap="round" stroke-linejoin="round"/>
<path d="M119.414 11.6707C120.195 12.4518 120.195 13.7181 119.414 14.4992C118.633 15.2802 117.367 15.2802 116.586 14.4992C115.805 13.7181 115.805 12.4518 116.586 11.6707C117.367 10.8897 118.633 10.8897 119.414 11.6707Z" stroke="#1E1D19" stroke-width="1.5" stroke-linecap="round" stroke-linejoin="round"/>
<path d="M126.685 16.9537C127.466 17.7348 127.466 19.0011 126.685 19.7821C125.904 20.5632 124.638 20.5632 123.857 19.7821C123.076 19.0011 123.076 17.7348 123.857 16.9537C124.638 16.1727 125.904 16.1727 126.685 16.9537Z" stroke="#1E1D19" stroke-width="1.5" stroke-linecap="round" stroke-linejoin="round"/>
<path d="M119.414 19.0298C120.195 19.8108 120.195 21.0771 119.414 21.8582C118.633 22.6392 117.367 22.6392 116.586 21.8582C115.805 21.0771 115.805 19.8108 116.586 19.0298C117.367 18.2487 118.633 18.2487 119.414 19.0298Z" stroke="#1E1D19" stroke-width="1.5" stroke-linecap="round" stroke-linejoin="round"/>
<path d="M119.14 22.08L121.35 25.28" stroke="#1E1D19" stroke-width="1.5" stroke-linecap="round" stroke-linejoin="round"/>
<path d="M116.86 22.08L114.65 25.27" stroke="#1E1D19" stroke-width="1.5" stroke-linecap="round" stroke-linejoin="round"/>
<path d="M116.09 19.8999L112.64 18.9099" stroke="#1E1D19" stroke-width="1.5" stroke-linecap="round" stroke-linejoin="round"/>
<path d="M118 18.44V15.09" stroke="#1E1D19" stroke-width="1.5" stroke-linecap="round" stroke-linejoin="round"/>
<path d="M119.91 19.8999L123.36 18.9099" stroke="#1E1D19" stroke-width="1.5" stroke-linecap="round" stroke-linejoin="round"/>
</g>
<path d="M188.217 48V39.2727H189.798V46.6747H193.642V48H188.217ZM194.346 48V41.4545H195.889V48H194.346ZM195.122 40.5256C194.877 40.5256 194.667 40.4446 194.491 40.2827C194.315 40.1179 194.227 39.9205 194.227 39.6903C194.227 39.4574 194.315 39.2599 194.491 39.098C194.667 38.9332 194.877 38.8509 195.122 38.8509C195.369 38.8509 195.579 38.9332 195.752 39.098C195.929 39.2599 196.017 39.4574 196.017 39.6903C196.017 39.9205 195.929 40.1179 195.752 40.2827C195.579 40.4446 195.369 40.5256 195.122 40.5256ZM196.943 48V39.2727H198.486V42.5369H198.55C198.629 42.3778 198.742 42.2088 198.886 42.0298C199.031 41.848 199.227 41.6932 199.474 41.5653C199.722 41.4347 200.037 41.3693 200.42 41.3693C200.926 41.3693 201.382 41.4986 201.788 41.7571C202.197 42.0128 202.521 42.392 202.76 42.8949C203.001 43.3949 203.122 44.0085 203.122 44.7358C203.122 45.4545 203.004 46.0653 202.769 46.5682C202.533 47.071 202.212 47.4545 201.805 47.7188C201.399 47.983 200.939 48.1151 200.425 48.1151C200.05 48.1151 199.739 48.0526 199.492 47.9276C199.244 47.8026 199.045 47.652 198.895 47.4759C198.747 47.2969 198.632 47.1278 198.55 46.9688H198.46V48H196.943ZM198.456 44.7273C198.456 45.1506 198.516 45.5213 198.635 45.8395C198.757 46.1577 198.932 46.4062 199.159 46.5852C199.389 46.7614 199.668 46.8494 199.994 46.8494C200.335 46.8494 200.621 46.7585 200.851 46.5767C201.081 46.392 201.254 46.1406 201.371 45.8224C201.49 45.5014 201.55 45.1364 201.55 44.7273C201.55 44.321 201.492 43.9602 201.375 43.6449C201.259 43.3295 201.085 43.0824 200.855 42.9034C200.625 42.7244 200.338 42.6349 199.994 42.6349C199.665 42.6349 199.385 42.7216 199.155 42.8949C198.925 43.0682 198.75 43.3111 198.631 43.6236C198.514 43.9361 198.456 44.304 198.456 44.7273ZM203.834 48V41.4545H205.329V42.5455H205.398C205.517 42.1676 205.721 41.8764 206.011 41.6719C206.304 41.4645 206.638 41.3608 207.013 41.3608C207.098 41.3608 207.193 41.3651 207.298 41.3736C207.406 41.3793 207.496 41.3892 207.567 41.4034V42.8224C207.501 42.7997 207.398 42.7798 207.256 42.7628C207.116 42.7429 206.981 42.733 206.851 42.733C206.569 42.733 206.317 42.794 206.092 42.9162C205.871 43.0355 205.696 43.2017 205.568 43.4148C205.44 43.6278 205.376 43.8736 205.376 44.152V48H203.834ZM209.758 48.1321C209.343 48.1321 208.969 48.0582 208.637 47.9105C208.307 47.7599 208.046 47.5384 207.853 47.2457C207.663 46.9531 207.567 46.5923 207.567 46.1634C207.567 45.794 207.636 45.4886 207.772 45.2472C207.908 45.0057 208.094 44.8125 208.33 44.6676C208.566 44.5227 208.832 44.4134 209.127 44.3395C209.425 44.2628 209.734 44.2074 210.052 44.1733C210.435 44.1335 210.746 44.098 210.985 44.0668C211.224 44.0327 211.397 43.9815 211.505 43.9134C211.616 43.8423 211.671 43.733 211.671 43.5852V43.5597C211.671 43.2386 211.576 42.9901 211.386 42.8139C211.195 42.6378 210.921 42.5497 210.563 42.5497C210.185 42.5497 209.886 42.6321 209.664 42.7969C209.445 42.9616 209.298 43.1562 209.221 43.3807L207.781 43.1761C207.894 42.7784 208.082 42.446 208.343 42.179C208.604 41.9091 208.924 41.7074 209.302 41.5739C209.68 41.4375 210.097 41.3693 210.555 41.3693C210.87 41.3693 211.184 41.4062 211.496 41.4801C211.809 41.554 212.094 41.6761 212.353 41.8466C212.611 42.0142 212.819 42.2429 212.975 42.5327C213.134 42.8224 213.214 43.1847 213.214 43.6193V48H211.731V47.1009H211.68C211.586 47.2827 211.454 47.4531 211.283 47.6122C211.116 47.7685 210.904 47.8949 210.648 47.9915C210.396 48.0852 210.099 48.1321 209.758 48.1321ZM210.158 46.9986C210.468 46.9986 210.736 46.9375 210.964 46.8153C211.191 46.6903 211.366 46.5256 211.488 46.321C211.613 46.1165 211.675 45.8935 211.675 45.652V44.8807C211.627 44.9205 211.545 44.9574 211.428 44.9915C211.315 45.0256 211.187 45.0554 211.045 45.081C210.903 45.1065 210.762 45.1293 210.623 45.1491C210.484 45.169 210.363 45.1861 210.261 45.2003C210.031 45.2315 209.825 45.2827 209.643 45.3537C209.461 45.4247 209.317 45.5241 209.212 45.652C209.107 45.777 209.055 45.9389 209.055 46.1378C209.055 46.4219 209.158 46.6364 209.366 46.7812C209.573 46.9261 209.837 46.9986 210.158 46.9986ZM214.165 48V41.4545H215.661V42.5455H215.729C215.848 42.1676 216.053 41.8764 216.342 41.6719C216.635 41.4645 216.969 41.3608 217.344 41.3608C217.429 41.3608 217.524 41.3651 217.629 41.3736C217.737 41.3793 217.827 41.3892 217.898 41.4034V42.8224C217.832 42.7997 217.729 42.7798 217.587 42.7628C217.448 42.7429 217.313 42.733 217.182 42.733C216.901 42.733 216.648 42.794 216.423 42.9162C216.202 43.0355 216.027 43.2017 215.899 43.4148C215.771 43.6278 215.707 43.8736 215.707 44.152V48H214.165ZM219.481 50.4545C219.27 50.4545 219.076 50.4375 218.897 50.4034C218.721 50.3722 218.58 50.3352 218.475 50.2926L218.833 49.0909C219.057 49.1563 219.258 49.1875 219.434 49.1847C219.61 49.1818 219.765 49.1264 219.898 49.0185C220.035 48.9134 220.15 48.7372 220.244 48.4901L220.376 48.1364L218.002 41.4545H219.638L221.147 46.3977H221.215L222.728 41.4545H224.369L221.748 48.7926C221.626 49.1392 221.464 49.4361 221.262 49.6832C221.06 49.9332 220.813 50.1236 220.52 50.2543C220.231 50.3878 219.884 50.4545 219.481 50.4545Z" fill="#1E1D19"/>
<g clip-path="url(#clip2_0_1850)">
<path d="M208.475 19.0251C209.842 20.392 209.842 22.608 208.475 23.9749C207.108 25.3417 204.892 25.3417 203.525 23.9749C202.158 22.608 202.158 20.392 203.525 19.0251C204.892 17.6583 207.108 17.6583 208.475 19.0251Z" stroke="#1E1D19" stroke-width="1.5" stroke-linecap="round" stroke-linejoin="round"/>
<path d="M212.733 14H199.267C198.11 14 197.194 14.979 197.271 16.133L198.004 27.133C198.074 28.184 198.947 29 200 29H212C213.053 29 213.926 28.184 213.996 27.133L214.729 16.133C214.806 14.979 213.89 14 212.733 14Z" stroke="#1E1D19" stroke-width="1.5" stroke-linecap="round" stroke-linejoin="round"/>
<path d="M200 11H212" stroke="#1E1D19" stroke-width="1.5" stroke-linecap="round" stroke-linejoin="round"/>
</g>
<defs>
<clipPath id="clip0_0_1850">
<rect width="24" height="24" fill="white" transform="translate(20 8)"/>
</clipPath>
<clipPath id="clip1_0_1850">
<rect width="24" height="24" fill="white" transform="translate(106 8)"/>
</clipPath>
<clipPath id="clip2_0_1850">
<rect width="24" height="24" fill="white" transform="translate(194 8)"/>
</clipPath>
</defs>
</svg>
