<svg width="15" height="15" viewBox="0 0 15 15" fill="none" xmlns="http://www.w3.org/2000/svg">
<path d="M7.5 2C8.22227 2 8.93747 2.14226 9.60476 2.41866C10.272 2.69506 10.8784 3.10019 11.3891 3.61091C11.8998 4.12164 12.3049 4.72795 12.5813 5.39524C12.8577 6.06253 13 6.77773 13 7.5C13 8.22227 12.8577 8.93747 12.5813 9.60476C12.3049 10.2721 11.8998 10.8784 11.3891 11.3891C10.8784 11.8998 10.272 12.3049 9.60476 12.5813C8.93747 12.8577 8.22227 13 7.5 13C6.77773 13 6.06253 12.8577 5.39524 12.5813C4.72795 12.3049 4.12163 11.8998 3.61091 11.3891C3.10019 10.8784 2.69506 10.272 2.41866 9.60476C2.14226 8.93747 2 8.22227 2 7.5C2 6.77773 2.14226 6.06253 2.41866 5.39524C2.69506 4.72795 3.10019 4.12163 3.61091 3.61091C4.12164 3.10019 4.72795 2.69506 5.39524 2.41866C6.06254 2.14226 6.77773 2 7.5 2L7.5 2Z" stroke="url(#paint0_linear_8_742)" stroke-width="3"/>
<path d="M7.5 2C8.49465 2 9.47068 2.26973 10.3242 2.78046C11.1777 3.2912 11.8767 4.02383 12.3468 4.90036C12.817 5.77688 13.0406 6.76449 12.9939 7.75804C12.9473 8.75159 12.6321 9.71389 12.0818 10.5425C11.5316 11.3711 10.767 12.035 9.86938 12.4635C8.97176 12.892 7.97475 13.069 6.98448 12.9758C5.99422 12.8826 5.04777 12.5225 4.24589 11.934C3.44402 11.3456 2.81674 10.5506 2.43083 9.6339" stroke="#EB4D2A" stroke-width="3"/>
<defs>
<linearGradient id="paint0_linear_8_742" x1="7.5" y1="-11.4444" x2="7.5" y2="13" gradientUnits="userSpaceOnUse">
<stop stop-color="#4D4F54"/>
<stop offset="1" stop-color="#ABB0BA" stop-opacity="0.13"/>
</linearGradient>
</defs>
</svg>
