<svg width="393" height="336" viewBox="0 0 393 336" fill="none" xmlns="http://www.w3.org/2000/svg">
<rect width="393" height="336" fill="white" fill-opacity="0.34" style="mix-blend-mode:lighten"/>
<rect width="393" height="336" fill="#535353" style="mix-blend-mode:color-dodge"/>
<rect width="393" height="336" fill="#EBF0F7" fill-opacity="0.5"/>
<rect width="393" height="336" fill="#DEDEDE" style="mix-blend-mode:color-burn"/>
<rect width="393" height="336" fill="black" fill-opacity="0.13" style="mix-blend-mode:darken"/>
<rect width="393" height="336" fill="#DEDEDE" style="mix-blend-mode:color-burn"/>
<rect x="1" y="6" width="124.333" height="39" rx="4.6" fill="#EBEDF0"/>
<path d="M44.6258 20.022L43.9037 24.7451H42.2518L43.555 20.022H44.6258ZM47.3817 20.022L46.6595 24.7451H45.0077L46.3109 20.022H47.3817ZM52.9583 32V21.3667H49.0984V20.022H58.3123V21.3667H54.4524V32H52.9583ZM60.1203 32V19.499H61.5646V24.3965H61.6974C61.9243 23.9206 62.2508 23.5526 62.6769 23.2925C63.103 23.0269 63.6453 22.894 64.3039 22.894C64.9735 22.894 65.5407 23.0241 66.0055 23.2842C66.4704 23.5387 66.8245 23.9123 67.068 24.4048C67.3115 24.8973 67.4333 25.4977 67.4333 26.2061V32H65.9889V26.5547C65.9889 25.7467 65.8174 25.1491 65.4743 24.7617C65.1367 24.3688 64.611 24.1724 63.8971 24.1724C63.4212 24.1724 63.009 24.2747 62.6603 24.4795C62.3117 24.6842 62.0405 24.9748 61.8468 25.3511C61.6587 25.7274 61.5646 26.1784 61.5646 26.7041V32H60.1203ZM73.3004 32.1577C72.4481 32.1577 71.7149 31.9696 71.1006 31.5933C70.4919 31.217 70.0215 30.6857 69.6895 29.9995C69.363 29.3078 69.1998 28.4943 69.1998 27.5591V27.5508C69.1998 26.6266 69.363 25.8159 69.6895 25.1187C70.0215 24.4214 70.4892 23.8763 71.0923 23.4834C71.6955 23.0905 72.4011 22.894 73.209 22.894C74.0225 22.894 74.7198 23.0822 75.3008 23.4585C75.8874 23.8348 76.3357 24.3605 76.6456 25.0356C76.961 25.7052 77.1187 26.4855 77.1187 27.3765V27.9409H69.9468V26.7871H76.3799L75.6661 27.8413V27.2686C75.6661 26.5658 75.5609 25.9875 75.3506 25.5337C75.1404 25.0799 74.8498 24.7424 74.4791 24.521C74.1083 24.2941 73.6822 24.1807 73.2007 24.1807C72.7193 24.1807 72.2877 24.2996 71.9058 24.5376C71.5295 24.77 71.2307 25.1159 71.0093 25.5752C70.788 26.0345 70.6773 26.599 70.6773 27.2686V27.8413C70.6773 28.4777 70.7852 29.0228 71.001 29.4766C71.2169 29.9248 71.524 30.2707 71.9224 30.5142C72.3209 30.7521 72.7912 30.8711 73.3336 30.8711C73.7375 30.8711 74.0889 30.8158 74.3878 30.7051C74.6866 30.5944 74.9328 30.4533 75.1265 30.2817C75.3202 30.1102 75.4558 29.9359 75.5333 29.7588L75.5665 29.6841H77.0108L76.9942 29.7505C76.9167 30.0549 76.7784 30.3509 76.5792 30.6387C76.3855 30.9209 76.1337 31.1782 75.8238 31.4106C75.5139 31.6375 75.1459 31.8201 74.7198 31.9585C74.2992 32.0913 73.8261 32.1577 73.3004 32.1577ZM78.9516 24.7451L79.6738 20.022H81.3257L80.0224 24.7451H78.9516ZM81.7075 24.7451L82.4297 20.022H84.0815L82.7783 24.7451H81.7075Z" fill="black"/>
<path d="M188.475 32.0664C187.556 32.0664 186.889 31.881 186.474 31.5103C186.065 31.1395 185.86 30.528 185.86 29.6758V24.2471H184.449V23.0518H185.86V20.7358H187.354V23.0518H189.313V24.2471H187.354V29.3105C187.354 29.8363 187.454 30.2153 187.653 30.4478C187.852 30.6746 188.184 30.7881 188.649 30.7881C188.776 30.7881 188.884 30.7853 188.973 30.7798C189.067 30.7743 189.18 30.766 189.313 30.7549V31.9834C189.175 32.0055 189.036 32.0249 188.898 32.0415C188.76 32.0581 188.619 32.0664 188.475 32.0664ZM191.154 32V19.499H192.599V24.3965H192.731C192.958 23.9206 193.285 23.5526 193.711 23.2925C194.137 23.0269 194.679 22.894 195.338 22.894C196.007 22.894 196.575 23.0241 197.039 23.2842C197.504 23.5387 197.858 23.9123 198.102 24.4048C198.345 24.8973 198.467 25.4977 198.467 26.2061V32H197.023V26.5547C197.023 25.7467 196.851 25.1491 196.508 24.7617C196.171 24.3688 195.645 24.1724 194.931 24.1724C194.455 24.1724 194.043 24.2747 193.694 24.4795C193.346 24.6842 193.074 24.9748 192.881 25.3511C192.693 25.7274 192.599 26.1784 192.599 26.7041V32H191.154ZM204.334 32.1577C203.482 32.1577 202.749 31.9696 202.135 31.5933C201.526 31.217 201.055 30.6857 200.723 29.9995C200.397 29.3078 200.234 28.4943 200.234 27.5591V27.5508C200.234 26.6266 200.397 25.8159 200.723 25.1187C201.055 24.4214 201.523 23.8763 202.126 23.4834C202.729 23.0905 203.435 22.894 204.243 22.894C205.056 22.894 205.754 23.0822 206.335 23.4585C206.921 23.8348 207.37 24.3605 207.68 25.0356C207.995 25.7052 208.153 26.4855 208.153 27.3765V27.9409H200.981V26.7871H207.414L206.7 27.8413V27.2686C206.7 26.5658 206.595 25.9875 206.385 25.5337C206.174 25.0799 205.884 24.7424 205.513 24.521C205.142 24.2941 204.716 24.1807 204.235 24.1807C203.753 24.1807 203.322 24.2996 202.94 24.5376C202.563 24.77 202.265 25.1159 202.043 25.5752C201.822 26.0345 201.711 26.599 201.711 27.2686V27.8413C201.711 28.4777 201.819 29.0228 202.035 29.4766C202.251 29.9248 202.558 30.2707 202.956 30.5142C203.355 30.7521 203.825 30.8711 204.367 30.8711C204.771 30.8711 205.123 30.8158 205.422 30.7051C205.721 30.5944 205.967 30.4533 206.16 30.2817C206.354 30.1102 206.49 29.9359 206.567 29.7588L206.6 29.6841H208.045L208.028 29.7505C207.951 30.0549 207.812 30.3509 207.613 30.6387C207.419 30.9209 207.168 31.1782 206.858 31.4106C206.548 31.6375 206.18 31.8201 205.754 31.9585C205.333 32.0913 204.86 32.1577 204.334 32.1577Z" fill="black"/>
<rect opacity="0.1" x="262.667" y="13" width="1" height="25" fill="black"/>
<path d="M326.506 32.0664C325.587 32.0664 324.92 31.881 324.505 31.5103C324.096 31.1395 323.891 30.528 323.891 29.6758V24.2471H322.48V23.0518H323.891V20.7358H325.385V23.0518H327.344V24.2471H325.385V29.3105C325.385 29.8363 325.485 30.2153 325.684 30.4478C325.883 30.6746 326.215 30.7881 326.68 30.7881C326.807 30.7881 326.915 30.7853 327.004 30.7798C327.098 30.7743 327.211 30.766 327.344 30.7549V31.9834C327.206 32.0055 327.067 32.0249 326.929 32.0415C326.791 32.0581 326.649 32.0664 326.506 32.0664ZM332.663 32.1577C331.817 32.1577 331.083 31.9723 330.463 31.6016C329.849 31.2253 329.373 30.6912 329.036 29.9995C328.704 29.3078 328.538 28.486 328.538 27.5342V27.5176C328.538 26.5602 328.704 25.7357 329.036 25.0439C329.373 24.3522 329.849 23.821 330.463 23.4502C331.083 23.0794 331.817 22.894 332.663 22.894C333.515 22.894 334.249 23.0794 334.863 23.4502C335.477 23.821 335.95 24.3522 336.282 25.0439C336.62 25.7357 336.789 26.5602 336.789 27.5176V27.5342C336.789 28.486 336.62 29.3078 336.282 29.9995C335.95 30.6912 335.477 31.2253 334.863 31.6016C334.249 31.9723 333.515 32.1577 332.663 32.1577ZM332.663 30.8794C333.228 30.8794 333.706 30.7466 334.099 30.481C334.492 30.2153 334.791 29.8335 334.996 29.3354C335.206 28.8374 335.311 28.237 335.311 27.5342V27.5176C335.311 26.8092 335.206 26.2061 334.996 25.708C334.791 25.21 334.492 24.8309 334.099 24.5708C333.706 24.3052 333.228 24.1724 332.663 24.1724C332.099 24.1724 331.62 24.3052 331.227 24.5708C330.834 24.8309 330.533 25.21 330.322 25.708C330.118 26.2061 330.015 26.8092 330.015 27.5176V27.5342C330.015 28.237 330.118 28.8374 330.322 29.3354C330.533 29.8335 330.834 30.2153 331.227 30.481C331.62 30.7466 332.099 30.8794 332.663 30.8794Z" fill="black"/>
<g filter="url(#filter1_d_0_1986)">
<g filter="url(#filter2_d_0_1986)">
<path d="M101 222.36C101 219.784 101 218.496 101.501 217.512C101.942 216.646 102.646 215.942 103.512 215.501C104.496 215 105.784 215 108.36 215H284.64C287.216 215 288.504 215 289.488 215.501C290.354 215.942 291.058 216.646 291.499 217.512C292 218.496 292 219.784 292 222.36V249.64C292 252.216 292 253.504 291.499 254.488C291.058 255.354 290.354 256.058 289.488 256.499C288.504 257 287.216 257 284.64 257H108.36C105.784 257 104.496 257 103.512 256.499C102.646 256.058 101.942 255.354 101.501 254.488C101 253.504 101 252.216 101 249.64V222.36Z" fill="#FCFCFE" shape-rendering="crispEdges"/>
<path d="M178.925 242.148C178.3 242.148 177.748 242.055 177.269 241.867C176.79 241.674 176.404 241.406 176.113 241.062C175.826 240.719 175.657 240.315 175.605 239.852H176.995C177.11 240.201 177.334 240.482 177.667 240.695C178.001 240.909 178.435 241.016 178.972 241.016C179.352 241.016 179.685 240.961 179.972 240.852C180.264 240.737 180.493 240.583 180.659 240.391C180.826 240.193 180.909 239.966 180.909 239.711V239.695C180.909 239.409 180.795 239.167 180.566 238.969C180.336 238.766 179.961 238.602 179.441 238.477L178.136 238.164C177.349 237.977 176.771 237.703 176.402 237.344C176.032 236.979 175.847 236.495 175.847 235.891V235.883C175.847 235.414 175.982 234.995 176.253 234.625C176.529 234.255 176.904 233.964 177.378 233.75C177.852 233.536 178.386 233.43 178.98 233.43C179.568 233.43 180.089 233.523 180.542 233.711C181.001 233.893 181.368 234.154 181.644 234.492C181.925 234.831 182.097 235.229 182.159 235.688H180.823C180.735 235.354 180.532 235.083 180.214 234.875C179.896 234.667 179.482 234.562 178.972 234.562C178.639 234.562 178.342 234.617 178.081 234.727C177.821 234.831 177.615 234.977 177.464 235.164C177.313 235.352 177.238 235.57 177.238 235.82V235.836C177.238 236.122 177.349 236.359 177.573 236.547C177.797 236.734 178.157 236.888 178.652 237.008L179.948 237.32C180.74 237.513 181.329 237.789 181.714 238.148C182.105 238.508 182.3 238.99 182.3 239.594V239.609C182.3 240.109 182.152 240.552 181.855 240.938C181.558 241.318 181.154 241.615 180.644 241.828C180.139 242.042 179.566 242.148 178.925 242.148ZM184.009 244.812V233.578H185.369V234.922H185.494C185.666 234.609 185.882 234.344 186.142 234.125C186.403 233.901 186.699 233.729 187.033 233.609C187.366 233.49 187.728 233.43 188.119 233.43C188.832 233.43 189.452 233.612 189.978 233.977C190.509 234.336 190.921 234.841 191.213 235.492C191.504 236.143 191.65 236.906 191.65 237.781V237.797C191.65 238.677 191.504 239.443 191.213 240.094C190.921 240.745 190.509 241.25 189.978 241.609C189.452 241.969 188.832 242.148 188.119 242.148C187.733 242.148 187.369 242.089 187.025 241.969C186.686 241.844 186.384 241.672 186.119 241.453C185.858 241.234 185.65 240.974 185.494 240.672H185.369V244.812H184.009ZM187.806 240.945C188.322 240.945 188.762 240.82 189.127 240.57C189.491 240.315 189.77 239.953 189.963 239.484C190.16 239.01 190.259 238.448 190.259 237.797V237.781C190.259 237.125 190.16 236.562 189.963 236.094C189.77 235.625 189.491 235.266 189.127 235.016C188.762 234.76 188.322 234.633 187.806 234.633C187.296 234.633 186.856 234.76 186.486 235.016C186.116 235.271 185.832 235.633 185.634 236.102C185.436 236.57 185.338 237.13 185.338 237.781V237.797C185.338 238.443 185.436 239.003 185.634 239.477C185.832 239.945 186.116 240.307 186.486 240.562C186.856 240.818 187.296 240.945 187.806 240.945ZM195.688 242.148C195.156 242.148 194.677 242.047 194.25 241.844C193.828 241.641 193.492 241.352 193.242 240.977C192.997 240.602 192.875 240.159 192.875 239.648V239.633C192.875 238.883 193.141 238.297 193.672 237.875C194.208 237.448 194.966 237.206 195.945 237.148L199.039 236.961V238.047L196.109 238.234C195.469 238.271 195 238.404 194.703 238.633C194.411 238.862 194.266 239.185 194.266 239.602V239.617C194.266 240.044 194.427 240.378 194.75 240.617C195.073 240.852 195.479 240.969 195.969 240.969C196.432 240.969 196.844 240.878 197.203 240.695C197.562 240.508 197.844 240.255 198.047 239.938C198.255 239.62 198.359 239.26 198.359 238.859V236.234C198.359 235.714 198.201 235.318 197.883 235.047C197.57 234.771 197.099 234.633 196.469 234.633C195.964 234.633 195.549 234.724 195.227 234.906C194.904 235.083 194.688 235.336 194.578 235.664L194.57 235.688H193.211L193.219 235.641C193.292 235.198 193.474 234.812 193.766 234.484C194.062 234.151 194.445 233.893 194.914 233.711C195.383 233.523 195.917 233.43 196.516 233.43C197.203 233.43 197.784 233.542 198.258 233.766C198.737 233.99 199.099 234.312 199.344 234.734C199.594 235.151 199.719 235.651 199.719 236.234V242H198.359V240.758H198.234C198.057 241.055 197.841 241.307 197.586 241.516C197.336 241.724 197.052 241.883 196.734 241.992C196.417 242.096 196.068 242.148 195.688 242.148ZM205.248 242.148C204.462 242.148 203.78 241.969 203.202 241.609C202.623 241.25 202.176 240.742 201.858 240.086C201.54 239.43 201.381 238.656 201.381 237.766V237.75C201.381 236.875 201.538 236.115 201.85 235.469C202.168 234.823 202.616 234.323 203.194 233.969C203.772 233.609 204.454 233.43 205.241 233.43C205.923 233.43 206.511 233.549 207.006 233.789C207.501 234.029 207.897 234.352 208.194 234.758C208.491 235.159 208.681 235.609 208.764 236.109L208.772 236.156H207.42L207.413 236.133C207.308 235.716 207.071 235.362 206.702 235.07C206.332 234.779 205.845 234.633 205.241 234.633C204.735 234.633 204.298 234.76 203.928 235.016C203.558 235.271 203.272 235.633 203.069 236.102C202.871 236.565 202.772 237.115 202.772 237.75V237.766C202.772 238.411 202.873 238.974 203.077 239.453C203.28 239.927 203.566 240.294 203.936 240.555C204.306 240.815 204.741 240.945 205.241 240.945C205.808 240.945 206.272 240.823 206.631 240.578C206.991 240.333 207.248 239.977 207.405 239.508L207.42 239.461L208.764 239.453L208.748 239.539C208.634 240.044 208.431 240.495 208.139 240.891C207.847 241.281 207.462 241.589 206.983 241.812C206.504 242.036 205.926 242.148 205.248 242.148ZM213.794 242.148C212.992 242.148 212.302 241.971 211.723 241.617C211.151 241.263 210.708 240.763 210.395 240.117C210.088 239.466 209.934 238.701 209.934 237.82V237.812C209.934 236.943 210.088 236.18 210.395 235.523C210.708 234.867 211.148 234.354 211.716 233.984C212.283 233.615 212.947 233.43 213.708 233.43C214.473 233.43 215.13 233.607 215.677 233.961C216.229 234.315 216.651 234.81 216.942 235.445C217.239 236.076 217.388 236.81 217.388 237.648V238.18H210.638V237.094H216.692L216.02 238.086V237.547C216.02 236.885 215.921 236.341 215.723 235.914C215.526 235.487 215.252 235.169 214.903 234.961C214.554 234.747 214.153 234.641 213.7 234.641C213.247 234.641 212.841 234.753 212.481 234.977C212.127 235.195 211.846 235.521 211.638 235.953C211.429 236.385 211.325 236.917 211.325 237.547V238.086C211.325 238.685 211.427 239.198 211.63 239.625C211.833 240.047 212.122 240.372 212.497 240.602C212.872 240.826 213.315 240.938 213.825 240.938C214.205 240.938 214.536 240.885 214.817 240.781C215.098 240.677 215.33 240.544 215.513 240.383C215.695 240.221 215.822 240.057 215.895 239.891L215.927 239.82H217.286L217.27 239.883C217.197 240.169 217.067 240.448 216.88 240.719C216.697 240.984 216.46 241.227 216.169 241.445C215.877 241.659 215.531 241.831 215.13 241.961C214.734 242.086 214.289 242.148 213.794 242.148Z" fill="black"/>
</g>
</g>
<g filter="url(#filter3_d_0_1986)">
<path d="M298 222.36C298 219.784 298 218.496 298.501 217.512C298.942 216.646 299.646 215.942 300.512 215.501C301.496 215 302.784 215 305.36 215H382.64C385.216 215 386.504 215 387.488 215.501C388.354 215.942 389.058 216.646 389.499 217.512C390 218.496 390 219.784 390 222.36V249.64C390 252.216 390 253.504 389.499 254.488C389.058 255.354 388.354 256.058 387.488 256.499C386.504 257 385.216 257 382.64 257H305.36C302.784 257 301.496 257 300.512 256.499C299.646 256.058 298.942 255.354 298.501 254.488C298 253.504 298 252.216 298 249.64V222.36Z" fill="#ABB0BA" shape-rendering="crispEdges"/>
<path d="M323.391 242V233.578H324.75V234.828H324.875C325.036 234.385 325.31 234.042 325.695 233.797C326.081 233.552 326.557 233.43 327.125 233.43C327.255 233.43 327.383 233.438 327.508 233.453C327.638 233.464 327.737 233.474 327.805 233.484V234.805C327.664 234.779 327.526 234.76 327.391 234.75C327.26 234.734 327.12 234.727 326.969 234.727C326.536 234.727 326.154 234.812 325.82 234.984C325.487 235.156 325.224 235.396 325.031 235.703C324.844 236.01 324.75 236.37 324.75 236.781V242H323.391ZM332.288 242.148C331.485 242.148 330.795 241.971 330.217 241.617C329.644 241.263 329.202 240.763 328.889 240.117C328.582 239.466 328.428 238.701 328.428 237.82V237.812C328.428 236.943 328.582 236.18 328.889 235.523C329.202 234.867 329.642 234.354 330.209 233.984C330.777 233.615 331.441 233.43 332.202 233.43C332.967 233.43 333.623 233.607 334.17 233.961C334.722 234.315 335.144 234.81 335.436 235.445C335.733 236.076 335.881 236.81 335.881 237.648V238.18H329.131V237.094H335.186L334.514 238.086V237.547C334.514 236.885 334.415 236.341 334.217 235.914C334.019 235.487 333.746 235.169 333.397 234.961C333.048 234.747 332.647 234.641 332.194 234.641C331.741 234.641 331.334 234.753 330.975 234.977C330.621 235.195 330.34 235.521 330.131 235.953C329.923 236.385 329.819 236.917 329.819 237.547V238.086C329.819 238.685 329.92 239.198 330.123 239.625C330.327 240.047 330.616 240.372 330.991 240.602C331.366 240.826 331.808 240.938 332.319 240.938C332.699 240.938 333.03 240.885 333.311 240.781C333.592 240.677 333.824 240.544 334.006 240.383C334.189 240.221 334.316 240.057 334.389 239.891L334.42 239.82H335.78L335.764 239.883C335.691 240.169 335.561 240.448 335.373 240.719C335.191 240.984 334.954 241.227 334.663 241.445C334.371 241.659 334.024 241.831 333.623 241.961C333.228 242.086 332.782 242.148 332.288 242.148ZM340.583 242.062C339.718 242.062 339.091 241.888 338.7 241.539C338.315 241.19 338.122 240.615 338.122 239.812V234.703H336.794V233.578H338.122V231.398H339.528V233.578H341.372V234.703H339.528V239.469C339.528 239.964 339.622 240.32 339.809 240.539C339.997 240.753 340.309 240.859 340.747 240.859C340.867 240.859 340.968 240.857 341.052 240.852C341.14 240.846 341.247 240.839 341.372 240.828V241.984C341.242 242.005 341.111 242.023 340.981 242.039C340.851 242.055 340.718 242.062 340.583 242.062ZM345.823 242.148C345.188 242.148 344.654 242.029 344.222 241.789C343.79 241.544 343.464 241.19 343.245 240.727C343.032 240.258 342.925 239.693 342.925 239.031V233.578H344.284V238.703C344.284 239.458 344.43 240.021 344.722 240.391C345.019 240.76 345.503 240.945 346.175 240.945C346.67 240.945 347.086 240.849 347.425 240.656C347.764 240.464 348.019 240.19 348.191 239.836C348.362 239.477 348.448 239.052 348.448 238.562V233.578H349.808V242H348.448V240.742H348.323C348.115 241.19 347.8 241.536 347.378 241.781C346.961 242.026 346.443 242.148 345.823 242.148ZM351.947 242V233.578H353.306V234.828H353.431C353.593 234.385 353.866 234.042 354.252 233.797C354.637 233.552 355.114 233.43 355.681 233.43C355.811 233.43 355.939 233.438 356.064 233.453C356.194 233.464 356.293 233.474 356.361 233.484V234.805C356.22 234.779 356.082 234.76 355.947 234.75C355.817 234.734 355.676 234.727 355.525 234.727C355.093 234.727 354.71 234.812 354.377 234.984C354.043 235.156 353.78 235.396 353.588 235.703C353.4 236.01 353.306 236.37 353.306 236.781V242H351.947ZM357.797 242V233.578H359.156V234.844H359.281C359.495 234.396 359.802 234.049 360.203 233.805C360.604 233.555 361.115 233.43 361.734 233.43C362.682 233.43 363.409 233.701 363.914 234.242C364.424 234.779 364.68 235.547 364.68 236.547V242H363.32V236.875C363.32 236.115 363.159 235.552 362.836 235.188C362.518 234.818 362.023 234.633 361.352 234.633C360.904 234.633 360.516 234.729 360.188 234.922C359.859 235.115 359.604 235.388 359.422 235.742C359.245 236.096 359.156 236.521 359.156 237.016V242H357.797Z" fill="black"/>
</g>
<g filter="url(#filter4_d_0_1986)">
<path d="M3 222.36C3 219.784 3 218.496 3.50137 217.512C3.94239 216.646 4.6461 215.942 5.51164 215.501C6.49564 215 7.78376 215 10.36 215H87.64C90.2162 215 91.5044 215 92.4884 215.501C93.3539 215.942 94.0576 216.646 94.4986 217.512C95 218.496 95 219.784 95 222.36V249.64C95 252.216 95 253.504 94.4986 254.488C94.0576 255.354 93.3539 256.058 92.4884 256.499C91.5044 257 90.2162 257 87.64 257H10.36C7.78376 257 6.49564 257 5.51164 256.499C4.6461 256.058 3.94239 255.354 3.50137 254.488C3 253.504 3 252.216 3 249.64V222.36Z" fill="#ABB0BA" shape-rendering="crispEdges"/>
<path d="M33.5641 242L37.7203 230.727H38.7984V232.547H38.3531L35.0406 242H33.5641ZM35.4469 238.773L35.8844 237.578H40.9781L41.4156 238.773H35.4469ZM41.7906 242L38.4781 232.547V230.727H39.1109L43.2672 242H41.7906ZM45.5469 242V240.758H49.0312C49.8802 240.758 50.5234 240.589 50.9609 240.25C51.3984 239.911 51.6172 239.419 51.6172 238.773V238.758C51.6172 238.326 51.5156 237.964 51.3125 237.672C51.1094 237.38 50.8047 237.161 50.3984 237.016C49.9974 236.87 49.4974 236.797 48.8984 236.797H45.5469V235.586H48.5C49.3542 235.586 49.9948 235.435 50.4219 235.133C50.8542 234.831 51.0703 234.383 51.0703 233.789V233.773C51.0703 233.201 50.875 232.758 50.4844 232.445C50.099 232.128 49.5573 231.969 48.8594 231.969H45.5469V230.727H49.1562C49.849 230.727 50.4427 230.841 50.9375 231.07C51.4375 231.299 51.8203 231.625 52.0859 232.047C52.3568 232.464 52.4922 232.958 52.4922 233.531V233.547C52.4922 233.938 52.4036 234.305 52.2266 234.648C52.0547 234.992 51.8229 235.281 51.5312 235.516C51.2396 235.75 50.9115 235.901 50.5469 235.969V236.094C51.0625 236.156 51.5078 236.31 51.8828 236.555C52.2578 236.799 52.5469 237.117 52.75 237.508C52.9583 237.893 53.0625 238.333 53.0625 238.828V238.844C53.0625 239.5 52.9089 240.065 52.6016 240.539C52.2995 241.008 51.8646 241.37 51.2969 241.625C50.7292 241.875 50.0443 242 49.2422 242H45.5469ZM44.8438 242V230.727H46.25V242H44.8438ZM59.4984 242.266C58.4776 242.266 57.5948 242.026 56.85 241.547C56.1052 241.068 55.5297 240.388 55.1234 239.508C54.7224 238.628 54.5219 237.583 54.5219 236.375V236.359C54.5219 235.146 54.7224 234.099 55.1234 233.219C55.5297 232.339 56.1026 231.659 56.8422 231.18C57.587 230.701 58.4698 230.461 59.4906 230.461C60.2823 230.461 61.001 230.617 61.6469 230.93C62.2979 231.237 62.8344 231.667 63.2562 232.219C63.6781 232.766 63.9437 233.398 64.0531 234.117L64.0453 234.133H62.6312L62.6234 234.117C62.4984 233.633 62.2875 233.216 61.9906 232.867C61.6937 232.513 61.3318 232.24 60.9047 232.047C60.4828 231.854 60.0115 231.758 59.4906 231.758C58.7719 231.758 58.1469 231.945 57.6156 232.32C57.0896 232.695 56.6833 233.227 56.3969 233.914C56.1104 234.602 55.9672 235.417 55.9672 236.359V236.375C55.9672 237.312 56.1104 238.125 56.3969 238.812C56.6833 239.5 57.0896 240.031 57.6156 240.406C58.1469 240.781 58.7745 240.969 59.4984 240.969C60.0245 240.969 60.501 240.885 60.9281 240.719C61.3552 240.547 61.7146 240.305 62.0062 239.992C62.2979 239.674 62.501 239.299 62.6156 238.867L62.6312 238.852H64.0531V238.867C63.9281 239.555 63.6573 240.154 63.2406 240.664C62.824 241.169 62.2953 241.562 61.6547 241.844C61.0193 242.125 60.3005 242.266 59.4984 242.266Z" fill="black"/>
</g>
<g filter="url(#filter5_d_0_1986)">
<path d="M62 168.36C62 165.784 62 164.496 62.5014 163.512C62.9424 162.646 63.6461 161.942 64.5116 161.501C65.4956 161 66.7838 161 69.36 161H87.9257C90.502 161 91.7901 161 92.7741 161.501C93.6396 161.942 94.3433 162.646 94.7843 163.512C95.2857 164.496 95.2857 165.784 95.2857 168.36V195.64C95.2857 198.216 95.2857 199.504 94.7843 200.488C94.3433 201.354 93.6396 202.058 92.7741 202.499C91.7901 203 90.502 203 87.9257 203H69.36C66.7838 203 65.4956 203 64.5116 202.499C63.6461 202.058 62.9424 201.354 62.5014 200.488C62 199.504 62 198.216 62 195.64V168.36Z" fill="#FCFCFE" shape-rendering="crispEdges"/>
<path d="M73.7148 188V186.486L80.8193 177.062V177.001H73.7271V175.244H83.2485V176.794L76.1929 186.181V186.242H83.2852V188H73.7148Z" fill="black"/>
</g>
<g filter="url(#filter6_d_0_1986)">
<path d="M101.286 168.36C101.286 165.784 101.286 164.496 101.787 163.512C102.228 162.646 102.932 161.942 103.797 161.501C104.781 161 106.069 161 108.646 161H127.211C129.788 161 131.076 161 132.06 161.501C132.925 161.942 133.629 162.646 134.07 163.512C134.571 164.496 134.571 165.784 134.571 168.36V195.64C134.571 198.216 134.571 199.504 134.07 200.488C133.629 201.354 132.925 202.058 132.06 202.499C131.076 203 129.788 203 127.211 203H108.646C106.069 203 104.781 203 103.797 202.499C102.932 202.058 102.228 201.354 101.787 200.488C101.286 199.504 101.286 198.216 101.286 195.64V168.36Z" fill="#FCFCFE" shape-rendering="crispEdges"/>
<path d="M112.292 188L116.638 181.616L112.354 175.244H114.734L117.798 180.017H117.871L120.886 175.244H123.267L118.945 181.53L123.218 188H120.837L117.798 183.154H117.725L114.648 188H112.292Z" fill="black"/>
</g>
<g filter="url(#filter7_d_0_1986)">
<path d="M140.572 168.36C140.572 165.784 140.572 164.496 141.073 163.512C141.514 162.646 142.218 161.942 143.083 161.501C144.067 161 145.355 161 147.932 161H166.497C169.073 161 170.362 161 171.346 161.501C172.211 161.942 172.915 162.646 173.356 163.512C173.857 164.496 173.857 165.784 173.857 168.36V195.64C173.857 198.216 173.857 199.504 173.356 200.488C172.915 201.354 172.211 202.058 171.346 202.499C170.362 203 169.073 203 166.497 203H147.932C145.355 203 144.067 203 143.083 202.499C142.218 202.058 141.514 201.354 141.073 200.488C140.572 199.504 140.572 198.216 140.572 195.64V168.36Z" fill="#FCFCFE" shape-rendering="crispEdges"/>
<path d="M157.45 188.244C156.246 188.244 155.2 187.972 154.313 187.426C153.434 186.881 152.75 186.112 152.262 185.119C151.782 184.126 151.542 182.954 151.542 181.604V181.591C151.542 180.249 151.786 179.085 152.274 178.1C152.762 177.115 153.446 176.354 154.325 175.817C155.212 175.272 156.246 175 157.426 175C158.483 175 159.391 175.203 160.148 175.61C160.913 176.017 161.515 176.546 161.954 177.197C162.394 177.84 162.658 178.527 162.748 179.26L162.76 179.357H160.685L160.66 179.26C160.506 178.625 160.16 178.072 159.623 177.6C159.094 177.119 158.361 176.879 157.426 176.879C156.685 176.879 156.034 177.075 155.472 177.465C154.919 177.848 154.488 178.393 154.178 179.101C153.869 179.809 153.715 180.647 153.715 181.616V181.628C153.715 182.613 153.869 183.459 154.178 184.167C154.496 184.875 154.935 185.42 155.497 185.803C156.058 186.177 156.709 186.364 157.45 186.364C158.321 186.364 159.029 186.149 159.574 185.717C160.119 185.278 160.485 184.7 160.673 183.984L160.697 183.898H162.784L162.772 183.984C162.65 184.79 162.353 185.514 161.881 186.157C161.409 186.8 160.795 187.308 160.038 187.683C159.289 188.057 158.427 188.244 157.45 188.244Z" fill="black"/>
</g>
<g filter="url(#filter8_d_0_1986)">
<path d="M179.857 168.36C179.857 165.784 179.857 164.496 180.359 163.512C180.8 162.646 181.503 161.942 182.369 161.501C183.353 161 184.641 161 187.217 161H205.783C208.359 161 209.647 161 210.631 161.501C211.497 161.942 212.201 162.646 212.642 163.512C213.143 164.496 213.143 165.784 213.143 168.36V195.64C213.143 198.216 213.143 199.504 212.642 200.488C212.201 201.354 211.497 202.058 210.631 202.499C209.647 203 208.359 203 205.783 203H187.217C184.641 203 183.353 203 182.369 202.499C181.503 202.058 180.8 201.354 180.359 200.488C179.857 199.504 179.857 198.216 179.857 195.64V168.36Z" fill="#FCFCFE" shape-rendering="crispEdges"/>
<path d="M195.271 188L190.571 175.244H192.805L196.321 185.729H196.394L199.922 175.244H202.131L197.444 188H195.271Z" fill="black"/>
</g>
<g filter="url(#filter9_d_0_1986)">
<path d="M219.143 168.36C219.143 165.784 219.143 164.496 219.644 163.512C220.085 162.646 220.789 161.942 221.654 161.501C222.638 161 223.927 161 226.503 161H245.069C247.645 161 248.933 161 249.917 161.501C250.782 161.942 251.486 162.646 251.927 163.512C252.429 164.496 252.429 165.784 252.429 168.36V195.64C252.429 198.216 252.429 199.504 251.927 200.488C251.486 201.354 250.782 202.058 249.917 202.499C248.933 203 247.645 203 245.069 203H226.503C223.927 203 222.638 203 221.654 202.499C220.789 202.058 220.085 201.354 219.644 200.488C219.143 199.504 219.143 198.216 219.143 195.64V168.36Z" fill="#FCFCFE" shape-rendering="crispEdges"/>
<path d="M236.412 188.244C235.5 188.244 234.699 188.033 234.007 187.609C233.323 187.178 232.778 186.596 232.371 185.864H232.31V188H230.186V170.275H232.31V177.355H232.371C232.77 176.631 233.323 176.057 234.031 175.634C234.748 175.211 235.553 175 236.448 175C237.523 175 238.459 175.272 239.256 175.817C240.062 176.363 240.692 177.132 241.148 178.125C241.604 179.109 241.832 180.269 241.832 181.604V181.628C241.832 182.963 241.604 184.126 241.148 185.119C240.701 186.112 240.07 186.881 239.256 187.426C238.45 187.972 237.502 188.244 236.412 188.244ZM235.985 186.364C236.741 186.364 237.392 186.173 237.938 185.791C238.491 185.408 238.914 184.863 239.207 184.155C239.508 183.439 239.659 182.596 239.659 181.628V181.604C239.659 180.627 239.508 179.789 239.207 179.089C238.914 178.381 238.491 177.836 237.938 177.453C237.392 177.071 236.741 176.879 235.985 176.879C235.26 176.879 234.622 177.075 234.068 177.465C233.515 177.856 233.079 178.405 232.762 179.113C232.445 179.821 232.286 180.651 232.286 181.604V181.628C232.286 182.58 232.441 183.414 232.75 184.13C233.067 184.838 233.503 185.388 234.056 185.778C234.617 186.169 235.26 186.364 235.985 186.364Z" fill="black"/>
</g>
<g filter="url(#filter10_d_0_1986)">
<path d="M258.428 168.36C258.428 165.784 258.428 164.496 258.93 163.512C259.371 162.646 260.075 161.942 260.94 161.501C261.924 161 263.212 161 265.788 161H284.354C286.93 161 288.219 161 289.203 161.501C290.068 161.942 290.772 162.646 291.213 163.512C291.714 164.496 291.714 165.784 291.714 168.36V195.64C291.714 198.216 291.714 199.504 291.213 200.488C290.772 201.354 290.068 202.058 289.203 202.499C288.219 203 286.93 203 284.354 203H265.788C263.212 203 261.924 203 260.94 202.499C260.075 202.058 259.371 201.354 258.93 200.488C258.428 199.504 258.428 198.216 258.428 195.64V168.36Z" fill="#FCFCFE" shape-rendering="crispEdges"/>
<path d="M269.704 188V175.244H271.828V177.075H271.889C272.231 176.464 272.723 175.968 273.366 175.585C274.017 175.195 274.823 175 275.783 175C277.191 175 278.281 175.423 279.054 176.269C279.828 177.107 280.214 178.259 280.214 179.724V188H278.09V180.114C278.09 179.064 277.846 178.263 277.358 177.709C276.869 177.156 276.133 176.879 275.148 176.879C274.473 176.879 273.887 177.03 273.39 177.331C272.894 177.624 272.507 178.043 272.231 178.588C271.962 179.125 271.828 179.756 271.828 180.48V188H269.704Z" fill="black"/>
</g>
<g filter="url(#filter11_d_0_1986)">
<path d="M297.714 168.36C297.714 165.784 297.714 164.496 298.216 163.512C298.657 162.646 299.36 161.942 300.226 161.501C301.21 161 302.498 161 305.074 161H323.64C326.216 161 327.504 161 328.488 161.501C329.354 161.942 330.058 162.646 330.499 163.512C331 164.496 331 165.784 331 168.36V195.64C331 198.216 331 199.504 330.499 200.488C330.058 201.354 329.354 202.058 328.488 202.499C327.504 203 326.216 203 323.64 203H305.074C302.498 203 301.21 203 300.226 202.499C299.36 202.058 298.657 201.354 298.216 200.488C297.714 199.504 297.714 198.216 297.714 195.64V168.36Z" fill="#FCFCFE" shape-rendering="crispEdges"/>
<path d="M305.523 188V175.244H307.647V177.111H307.708C307.993 176.477 308.44 175.968 309.051 175.585C309.661 175.195 310.377 175 311.199 175C311.777 175 312.302 175.097 312.774 175.292C313.246 175.48 313.653 175.756 313.995 176.123C314.336 176.481 314.597 176.912 314.776 177.417H314.849C315.085 176.912 315.398 176.481 315.789 176.123C316.188 175.764 316.644 175.488 317.156 175.292C317.677 175.097 318.235 175 318.829 175C319.675 175 320.407 175.174 321.026 175.524C321.644 175.866 322.125 176.35 322.466 176.977C322.808 177.596 322.979 178.332 322.979 179.187V188H320.855V179.675C320.855 178.796 320.623 178.112 320.159 177.624C319.703 177.128 319.048 176.879 318.194 176.879C317.632 176.879 317.132 177.01 316.692 177.27C316.261 177.53 315.923 177.889 315.679 178.344C315.435 178.792 315.313 179.305 315.313 179.882V188H313.189V179.431C313.189 178.658 312.949 178.039 312.469 177.575C311.997 177.111 311.362 176.879 310.564 176.879C310.003 176.879 309.502 177.018 309.063 177.294C308.624 177.571 308.278 177.945 308.025 178.417C307.773 178.881 307.647 179.414 307.647 180.017V188H305.523Z" fill="black"/>
</g>
<g filter="url(#filter12_d_0_1986)">
<path d="M346 168.36C346 165.784 346 164.496 346.501 163.512C346.942 162.646 347.646 161.942 348.512 161.501C349.496 161 350.784 161 353.36 161H382.64C385.216 161 386.504 161 387.488 161.501C388.354 161.942 389.058 162.646 389.499 163.512C390 164.496 390 165.784 390 168.36V195.64C390 198.216 390 199.504 389.499 200.488C389.058 201.354 388.354 202.058 387.488 202.499C386.504 203 385.216 203 382.64 203H353.36C350.784 203 349.496 203 348.512 202.499C347.646 202.058 346.942 201.354 346.501 200.488C346 199.504 346 198.216 346 195.64V168.36Z" fill="#ABB0BA" shape-rendering="crispEdges"/>
<path d="M375.266 190.953L366.789 190.943C366.405 190.943 366.04 190.901 365.695 190.816C365.357 190.738 365.031 190.611 364.719 190.436C364.413 190.26 364.126 190.032 363.859 189.752L358.098 183.805C357.779 183.473 357.544 183.157 357.395 182.857C357.245 182.551 357.17 182.249 357.17 181.949C357.17 181.741 357.202 181.539 357.268 181.344C357.333 181.142 357.434 180.937 357.57 180.729C357.707 180.52 357.883 180.309 358.098 180.094L363.85 174.117C364.117 173.837 364.403 173.613 364.709 173.443C365.021 173.274 365.347 173.154 365.686 173.082C366.031 173.01 366.395 172.975 366.779 172.975H375.266C376.288 172.975 377.053 173.229 377.561 173.736C378.075 174.238 378.332 174.993 378.332 176.002V187.926C378.332 188.935 378.075 189.69 377.561 190.191C377.053 190.699 376.288 190.953 375.266 190.953ZM375.246 189.381C375.734 189.381 376.109 189.254 376.369 189C376.63 188.74 376.76 188.355 376.76 187.848V176.08C376.76 175.572 376.63 175.191 376.369 174.938C376.109 174.677 375.734 174.547 375.246 174.547H366.75C366.385 174.547 366.07 174.589 365.803 174.674C365.542 174.758 365.285 174.931 365.031 175.191L359.318 181.119C359.032 181.432 358.889 181.708 358.889 181.949C358.889 182.073 358.918 182.2 358.977 182.33C359.042 182.454 359.156 182.6 359.318 182.77L365.041 188.678C365.295 188.938 365.552 189.12 365.812 189.225C366.073 189.329 366.389 189.381 366.76 189.381H375.246ZM366.213 186.09C365.998 186.09 365.812 186.012 365.656 185.855C365.507 185.699 365.432 185.514 365.432 185.299C365.432 185.084 365.51 184.902 365.666 184.752L368.439 181.969L365.666 179.186C365.51 179.036 365.432 178.854 365.432 178.639C365.432 178.424 365.507 178.242 365.656 178.092C365.812 177.942 365.998 177.867 366.213 177.867C366.434 177.867 366.617 177.945 366.76 178.102L369.543 180.875L372.355 178.092C372.512 177.929 372.691 177.848 372.893 177.848C373.107 177.848 373.29 177.926 373.439 178.082C373.596 178.232 373.674 178.414 373.674 178.629C373.674 178.837 373.596 179.02 373.439 179.176L370.656 181.969L373.43 184.742C373.586 184.898 373.664 185.084 373.664 185.299C373.664 185.514 373.586 185.699 373.43 185.855C373.28 186.012 373.098 186.09 372.883 186.09C372.668 186.09 372.482 186.008 372.326 185.846L369.543 183.072L366.779 185.846C366.63 186.008 366.441 186.09 366.213 186.09Z" fill="black"/>
</g>
<g filter="url(#filter13_d_0_1986)">
<path d="M3 168.36C3 165.784 3 164.496 3.50137 163.512C3.94239 162.646 4.6461 161.942 5.51164 161.501C6.49564 161 7.78376 161 10.36 161H39.64C42.2162 161 43.5044 161 44.4884 161.501C45.3539 161.942 46.0576 162.646 46.4986 163.512C47 164.496 47 165.784 47 168.36V195.64C47 198.216 47 199.504 46.4986 200.488C46.0576 201.354 45.3539 202.058 44.4884 202.499C43.5044 203 42.2162 203 39.64 203H10.36C7.78376 203 6.49564 203 5.51164 202.499C4.6461 202.058 3.94239 201.354 3.50137 200.488C3 199.504 3 198.216 3 195.64V168.36Z" fill="#ABB0BA" shape-rendering="crispEdges"/>
<path d="M22.4824 190.953C21.7988 190.953 21.278 190.764 20.9199 190.387C20.5618 190.016 20.3828 189.508 20.3828 188.863V184.488H16.4082C16.0111 184.488 15.6758 184.378 15.4023 184.156C15.1289 183.928 14.9922 183.629 14.9922 183.258C14.9922 183.03 15.041 182.828 15.1387 182.652C15.2428 182.477 15.3893 182.294 15.5781 182.105L24.2891 173.424C24.4779 173.229 24.6699 173.082 24.8652 172.984C25.0671 172.88 25.2754 172.828 25.4902 172.828C25.7116 172.828 25.9199 172.88 26.1152 172.984C26.3171 173.082 26.5124 173.229 26.7012 173.424L35.4121 182.105C35.5879 182.281 35.7279 182.46 35.832 182.643C35.9427 182.825 35.998 183.03 35.998 183.258C35.998 183.629 35.8581 183.928 35.5781 184.156C35.3047 184.378 34.9694 184.488 34.5723 184.488H30.6074V188.863C30.6074 189.508 30.4284 190.016 30.0703 190.387C29.7122 190.764 29.1914 190.953 28.5078 190.953H22.4824ZM22.6387 189.439H28.3516C28.5273 189.439 28.6738 189.381 28.791 189.264C28.9147 189.146 28.9766 189 28.9766 188.824V183.346C28.9766 183.124 29.084 183.014 29.2988 183.014H33.8008C33.8724 183.014 33.9082 182.988 33.9082 182.936C33.9082 182.896 33.8887 182.857 33.8496 182.818L25.6953 174.713C25.6628 174.674 25.6302 174.648 25.5977 174.635C25.5651 174.622 25.5293 174.615 25.4902 174.615C25.4577 174.615 25.4251 174.622 25.3926 174.635C25.36 174.648 25.3242 174.674 25.2852 174.713L17.1309 182.818C17.0918 182.857 17.0723 182.896 17.0723 182.936C17.0723 182.988 17.1081 183.014 17.1797 183.014H21.6914C21.9062 183.014 22.0137 183.124 22.0137 183.346V188.824C22.0137 189.007 22.0723 189.153 22.1895 189.264C22.3066 189.381 22.4564 189.439 22.6387 189.439Z" fill="black"/>
</g>
<g filter="url(#filter14_d_0_1986)">
<path d="M23 114.36C23 111.784 23 110.496 23.5014 109.512C23.9424 108.646 24.6461 107.942 25.5116 107.501C26.4956 107 27.7838 107 30.36 107H48.8622C51.4385 107 52.7266 107 53.7106 107.501C54.5761 107.942 55.2798 108.646 55.7209 109.512C56.2222 110.496 56.2222 111.784 56.2222 114.36V141.64C56.2222 144.216 56.2222 145.504 55.7209 146.488C55.2798 147.354 54.5761 148.058 53.7106 148.499C52.7266 149 51.4385 149 48.8622 149H30.36C27.7838 149 26.4956 149 25.5116 148.499C24.6461 148.058 23.9424 147.354 23.5014 146.488C23 145.504 23 144.216 23 141.64V114.36Z" fill="#FCFCFE" shape-rendering="crispEdges"/>
<path d="M38.3037 134.244C37.4655 134.244 36.7249 134.085 36.082 133.768C35.4473 133.451 34.9508 133.003 34.5928 132.425C34.2347 131.847 34.0557 131.172 34.0557 130.399V130.375C34.0557 129.284 34.4585 128.413 35.2642 127.762C36.078 127.111 37.2173 126.745 38.6821 126.664L43.394 126.395V128.043L38.9263 128.312C38.0555 128.368 37.3882 128.576 36.9243 128.934C36.4604 129.292 36.2285 129.772 36.2285 130.375V130.399C36.2285 131.009 36.4604 131.498 36.9243 131.864C37.3882 132.222 38.0026 132.401 38.7676 132.401C39.443 132.401 40.0493 132.263 40.5864 131.986C41.1235 131.701 41.5467 131.314 41.856 130.826C42.1733 130.33 42.332 129.776 42.332 129.166V125.37C42.332 124.588 42.0879 123.978 41.5996 123.539C41.1195 123.099 40.4277 122.879 39.5244 122.879C38.7188 122.879 38.0636 123.054 37.5591 123.404C37.0627 123.746 36.7493 124.198 36.6191 124.759L36.5947 124.857H34.5317L34.5439 124.723C34.6172 124.031 34.8613 123.404 35.2764 122.843C35.6995 122.273 36.2733 121.826 36.9976 121.5C37.7218 121.166 38.5763 121 39.561 121C40.5701 121 41.4409 121.17 42.1733 121.512C42.9058 121.854 43.4673 122.338 43.8579 122.965C44.2567 123.591 44.4561 124.332 44.4561 125.187V134H42.332V131.949H42.271C42.0187 132.413 41.6891 132.82 41.2822 133.17C40.8835 133.512 40.4277 133.776 39.915 133.963C39.4105 134.151 38.8734 134.244 38.3037 134.244Z" fill="black"/>
</g>
<g filter="url(#filter15_d_0_1986)">
<path d="M62.2222 114.36C62.2222 111.784 62.2222 110.496 62.7235 109.512C63.1646 108.646 63.8683 107.942 64.7338 107.501C65.7178 107 67.0059 107 69.5822 107H88.0844C90.6606 107 91.9488 107 92.9327 107.501C93.7983 107.942 94.502 108.646 94.943 109.512C95.4444 110.496 95.4444 111.784 95.4444 114.36V141.64C95.4444 144.216 95.4444 145.504 94.943 146.488C94.502 147.354 93.7983 148.058 92.9327 148.499C91.9488 149 90.6606 149 88.0844 149H69.5822C67.0059 149 65.7178 149 64.7338 148.499C63.8683 148.058 63.1646 147.354 62.7235 146.488C62.2222 145.504 62.2222 144.216 62.2222 141.64V114.36Z" fill="#FCFCFE" shape-rendering="crispEdges"/>
<path d="M78.771 134.244C77.7782 134.244 76.9155 134.09 76.1831 133.78C75.4588 133.463 74.8851 133.023 74.4619 132.462C74.0387 131.892 73.7824 131.229 73.6929 130.472L73.6807 130.375H75.8169L75.8413 130.484C75.9797 131.111 76.2889 131.599 76.769 131.949C77.2573 132.299 77.9287 132.474 78.7832 132.474C79.3691 132.474 79.8656 132.397 80.2725 132.242C80.6875 132.088 81.009 131.868 81.2368 131.583C81.4647 131.298 81.5786 130.965 81.5786 130.582V130.57C81.5786 130.114 81.4321 129.748 81.1392 129.471C80.8543 129.186 80.3416 128.95 79.6011 128.763L77.5869 128.275C76.3906 127.99 75.4995 127.563 74.9136 126.993C74.3276 126.424 74.0347 125.679 74.0347 124.759V124.747C74.0347 124.015 74.234 123.368 74.6328 122.806C75.0316 122.245 75.585 121.805 76.293 121.488C77.001 121.162 77.8107 121 78.7222 121C79.6499 121 80.4596 121.162 81.1514 121.488C81.8431 121.813 82.3883 122.257 82.7871 122.818C83.1859 123.372 83.4137 124.007 83.4707 124.723L83.4829 124.857H81.4443V124.784C81.3548 124.173 81.0741 123.685 80.6021 123.319C80.1382 122.953 79.5116 122.77 78.7222 122.77C78.2095 122.77 77.7619 122.847 77.3794 123.001C77.005 123.156 76.7161 123.376 76.5127 123.661C76.3092 123.945 76.2075 124.275 76.2075 124.649V124.662C76.2075 125.093 76.3621 125.459 76.6714 125.76C76.9888 126.061 77.5015 126.297 78.2095 126.468L80.2358 126.957C81.5135 127.266 82.4168 127.693 82.9458 128.238C83.4829 128.784 83.7515 129.512 83.7515 130.423V130.436C83.7515 131.184 83.5317 131.843 83.0923 132.413C82.661 132.983 82.071 133.43 81.3223 133.756C80.5736 134.081 79.7231 134.244 78.771 134.244Z" fill="black"/>
</g>
<g filter="url(#filter16_d_0_1986)">
<path d="M101.444 114.36C101.444 111.784 101.444 110.496 101.946 109.512C102.387 108.646 103.09 107.942 103.956 107.501C104.94 107 106.228 107 108.804 107H127.307C129.883 107 131.171 107 132.155 107.501C133.02 107.942 133.724 108.646 134.165 109.512C134.667 110.496 134.667 111.784 134.667 114.36V141.64C134.667 144.216 134.667 145.504 134.165 146.488C133.724 147.354 133.02 148.058 132.155 148.499C131.171 149 129.883 149 127.307 149H108.804C106.228 149 104.94 149 103.956 148.499C103.09 148.058 102.387 147.354 101.946 146.488C101.444 145.504 101.444 144.216 101.444 141.64V114.36Z" fill="#FCFCFE" shape-rendering="crispEdges"/>
<path d="M117.163 134.244C116.073 134.244 115.12 133.972 114.307 133.426C113.501 132.881 112.87 132.112 112.415 131.119C111.967 130.126 111.743 128.963 111.743 127.628V127.604C111.743 126.269 111.967 125.109 112.415 124.125C112.87 123.132 113.501 122.363 114.307 121.817C115.12 121.272 116.06 121 117.126 121C118.022 121 118.823 121.211 119.531 121.634C120.247 122.057 120.801 122.631 121.191 123.355H121.265V116.275H123.389V134H121.265V131.864H121.191C120.793 132.596 120.247 133.178 119.556 133.609C118.872 134.033 118.075 134.244 117.163 134.244ZM117.578 132.364C118.311 132.364 118.953 132.169 119.507 131.778C120.068 131.388 120.504 130.838 120.813 130.13C121.122 129.414 121.277 128.58 121.277 127.628V127.604C121.277 126.651 121.118 125.821 120.801 125.113C120.492 124.405 120.06 123.856 119.507 123.465C118.953 123.075 118.311 122.879 117.578 122.879C116.829 122.879 116.178 123.071 115.625 123.453C115.08 123.836 114.657 124.381 114.355 125.089C114.062 125.789 113.916 126.627 113.916 127.604V127.628C113.916 128.596 114.062 129.439 114.355 130.155C114.657 130.863 115.08 131.408 115.625 131.791C116.178 132.173 116.829 132.364 117.578 132.364Z" fill="black"/>
</g>
<g filter="url(#filter17_d_0_1986)">
<path d="M140.667 114.36C140.667 111.784 140.667 110.496 141.168 109.512C141.609 108.646 142.313 107.942 143.178 107.501C144.162 107 145.451 107 148.027 107H166.529C169.105 107 170.393 107 171.377 107.501C172.243 107.942 172.947 108.646 173.388 109.512C173.889 110.496 173.889 111.784 173.889 114.36V141.64C173.889 144.216 173.889 145.504 173.388 146.488C172.947 147.354 172.243 148.058 171.377 148.499C170.393 149 169.105 149 166.529 149H148.027C145.451 149 144.162 149 143.178 148.499C142.313 148.058 141.609 147.354 141.168 146.488C140.667 145.504 140.667 144.216 140.667 141.64V114.36Z" fill="#FCFCFE" shape-rendering="crispEdges"/>
<path d="M155.446 134V123.001H153.615V121.244H155.446V119.693C155.446 118.456 155.734 117.541 156.312 116.947C156.898 116.353 157.785 116.056 158.973 116.056C159.209 116.056 159.445 116.064 159.681 116.08C159.917 116.096 160.117 116.117 160.28 116.141V117.862C160.149 117.846 160.003 117.834 159.84 117.826C159.685 117.818 159.523 117.813 159.352 117.813C158.741 117.813 158.286 117.972 157.985 118.29C157.692 118.599 157.545 119.071 157.545 119.706V121.244H160.206V123.001H157.57V134H155.446Z" fill="black"/>
</g>
<g filter="url(#filter18_d_0_1986)">
<path d="M179.889 114.36C179.889 111.784 179.889 110.496 180.39 109.512C180.831 108.646 181.535 107.942 182.401 107.501C183.385 107 184.673 107 187.249 107H205.751C208.327 107 209.615 107 210.599 107.501C211.465 107.942 212.169 108.646 212.61 109.512C213.111 110.496 213.111 111.784 213.111 114.36V141.64C213.111 144.216 213.111 145.504 212.61 146.488C212.169 147.354 211.465 148.058 210.599 148.499C209.615 149 208.327 149 205.751 149H187.249C184.673 149 183.385 149 182.401 148.499C181.535 148.058 180.831 147.354 180.39 146.488C179.889 145.504 179.889 144.216 179.889 141.64V114.36Z" fill="#FCFCFE" shape-rendering="crispEdges"/>
<path d="M196.255 138.529C195.213 138.529 194.302 138.378 193.52 138.077C192.747 137.784 192.121 137.381 191.64 136.869C191.168 136.356 190.863 135.782 190.725 135.147L190.713 135.05H192.849L192.898 135.147C193.093 135.603 193.48 135.965 194.057 136.234C194.635 136.511 195.359 136.649 196.23 136.649C197.361 136.649 198.232 136.364 198.843 135.794C199.461 135.233 199.77 134.46 199.77 133.475V131.705H199.709C199.449 132.185 199.119 132.596 198.72 132.938C198.322 133.28 197.862 133.544 197.341 133.731C196.828 133.919 196.267 134.012 195.656 134.012C194.582 134.012 193.638 133.744 192.824 133.207C192.011 132.661 191.376 131.9 190.92 130.924C190.473 129.947 190.249 128.804 190.249 127.494V127.481C190.249 126.179 190.477 125.044 190.932 124.076C191.396 123.099 192.035 122.342 192.849 121.805C193.671 121.268 194.623 121 195.705 121C196.308 121 196.861 121.101 197.365 121.305C197.878 121.508 198.33 121.789 198.72 122.147C199.119 122.505 199.449 122.92 199.709 123.392H199.77V121.244H201.894V133.67C201.894 134.655 201.662 135.51 201.198 136.234C200.743 136.966 200.092 137.532 199.245 137.931C198.407 138.329 197.41 138.529 196.255 138.529ZM196.12 132.132C196.853 132.132 197.492 131.941 198.037 131.559C198.59 131.168 199.017 130.627 199.319 129.935C199.628 129.235 199.782 128.421 199.782 127.494V127.481C199.782 126.554 199.628 125.748 199.319 125.064C199.017 124.373 198.59 123.836 198.037 123.453C197.483 123.071 196.845 122.879 196.12 122.879C195.364 122.879 194.704 123.071 194.143 123.453C193.589 123.827 193.162 124.361 192.861 125.052C192.568 125.744 192.422 126.554 192.422 127.481V127.494C192.422 128.446 192.568 129.268 192.861 129.959C193.162 130.651 193.589 131.188 194.143 131.571C194.704 131.945 195.364 132.132 196.12 132.132Z" fill="black"/>
</g>
<g filter="url(#filter19_d_0_1986)">
<path d="M219.111 114.36C219.111 111.784 219.111 110.496 219.612 109.512C220.053 108.646 220.757 107.942 221.623 107.501C222.607 107 223.895 107 226.471 107H244.973C247.55 107 248.838 107 249.822 107.501C250.687 107.942 251.391 108.646 251.832 109.512C252.333 110.496 252.333 111.784 252.333 114.36V141.64C252.333 144.216 252.333 145.504 251.832 146.488C251.391 147.354 250.687 148.058 249.822 148.499C248.838 149 247.55 149 244.973 149H226.471C223.895 149 222.607 149 221.623 148.499C220.757 148.058 220.053 147.354 219.612 146.488C219.111 145.504 219.111 144.216 219.111 141.64V114.36Z" fill="#FCFCFE" shape-rendering="crispEdges"/>
<path d="M230.362 134V116.275H232.486V123.258H232.547C232.889 122.55 233.393 121.996 234.061 121.598C234.736 121.199 235.546 121 236.49 121C237.401 121 238.199 121.215 238.883 121.646C239.566 122.07 240.095 122.664 240.469 123.429C240.852 124.194 241.043 125.093 241.043 126.126V134H238.919V126.505C238.919 125.357 238.647 124.466 238.101 123.832C237.556 123.197 236.783 122.879 235.782 122.879C235.123 122.879 234.545 123.034 234.049 123.343C233.552 123.653 233.166 124.08 232.889 124.625C232.62 125.17 232.486 125.809 232.486 126.542V134H230.362Z" fill="black"/>
</g>
<g filter="url(#filter20_d_0_1986)">
<path d="M258.333 114.36C258.333 111.784 258.333 110.496 258.835 109.512C259.276 108.646 259.979 107.942 260.845 107.501C261.829 107 263.117 107 265.693 107H284.195C286.772 107 288.06 107 289.044 107.501C289.909 107.942 290.613 108.646 291.054 109.512C291.555 110.496 291.555 111.784 291.555 114.36V141.64C291.555 144.216 291.555 145.504 291.054 146.488C290.613 147.354 289.909 148.058 289.044 148.499C288.06 149 286.772 149 284.195 149H265.693C263.117 149 261.829 149 260.845 148.499C259.979 148.058 259.276 147.354 258.835 146.488C258.333 145.504 258.333 144.216 258.333 141.64V114.36Z" fill="#FCFCFE" shape-rendering="crispEdges"/>
<path d="M271.94 138.321C271.875 138.321 271.81 138.321 271.745 138.321C271.672 138.321 271.602 138.317 271.537 138.309V136.441C271.594 136.441 271.651 136.441 271.708 136.441C271.757 136.441 271.81 136.441 271.867 136.441C272.559 136.441 273.047 136.307 273.332 136.039C273.617 135.778 273.759 135.29 273.759 134.574V121.244H275.883V134.549C275.883 135.843 275.566 136.795 274.931 137.406C274.296 138.016 273.299 138.321 271.94 138.321ZM274.821 119.034C274.447 119.034 274.125 118.904 273.857 118.644C273.596 118.383 273.466 118.066 273.466 117.691C273.466 117.309 273.596 116.987 273.857 116.727C274.125 116.467 274.447 116.336 274.821 116.336C275.195 116.336 275.513 116.467 275.773 116.727C276.034 116.987 276.164 117.309 276.164 117.691C276.164 118.066 276.034 118.383 275.773 118.644C275.513 118.904 275.195 119.034 274.821 119.034Z" fill="black"/>
</g>
<g filter="url(#filter21_d_0_1986)">
<path d="M297.556 114.36C297.556 111.784 297.556 110.496 298.057 109.512C298.498 108.646 299.202 107.942 300.067 107.501C301.051 107 302.339 107 304.916 107H323.418C325.994 107 327.282 107 328.266 107.501C329.132 107.942 329.835 108.646 330.277 109.512C330.778 110.496 330.778 111.784 330.778 114.36V141.64C330.778 144.216 330.778 145.504 330.277 146.488C329.835 147.354 329.132 148.058 328.266 148.499C327.282 149 325.994 149 323.418 149H304.916C302.339 149 301.051 149 300.067 148.499C299.202 148.058 298.498 147.354 298.057 146.488C297.556 145.504 297.556 144.216 297.556 141.64V114.36Z" fill="#FCFCFE" shape-rendering="crispEdges"/>
<path d="M309.515 134V116.275H311.639V134H309.515ZM317.571 134L312.701 127.884L314.129 126.468L320.062 134H317.571ZM311.187 129.618L311.175 126.859H311.712L317.291 121.244H319.866L313.824 127.237L313.604 127.311L311.187 129.618Z" fill="black"/>
</g>
<g filter="url(#filter22_d_0_1986)">
<path d="M336.778 114.36C336.778 111.784 336.778 110.496 337.279 109.512C337.72 108.646 338.424 107.942 339.289 107.501C340.273 107 341.562 107 344.138 107H362.64C365.216 107 366.504 107 367.488 107.501C368.354 107.942 369.058 108.646 369.499 109.512C370 110.496 370 111.784 370 114.36V141.64C370 144.216 370 145.504 369.499 146.488C369.058 147.354 368.354 148.058 367.488 148.499C366.504 149 365.216 149 362.64 149H344.138C341.562 149 340.273 149 339.289 148.499C338.424 148.058 337.72 147.354 337.279 146.488C336.778 145.504 336.778 144.216 336.778 141.64V114.36Z" fill="#FCFCFE" shape-rendering="crispEdges"/>
<path d="M352.216 134V116.275H354.34V134H352.216Z" fill="black"/>
</g>
<g filter="url(#filter23_d_0_1986)">
<path d="M3 60.36C3 57.7838 3 56.4956 3.50137 55.5116C3.94239 54.6461 4.6461 53.9424 5.51164 53.5014C6.49564 53 7.78376 53 10.36 53H28.94C31.5162 53 32.8044 53 33.7884 53.5014C34.6539 53.9424 35.3576 54.6461 35.7986 55.5116C36.3 56.4956 36.3 57.7838 36.3 60.36V87.64C36.3 90.2162 36.3 91.5044 35.7986 92.4884C35.3576 93.3539 34.6539 94.0576 33.7884 94.4986C32.8044 95 31.5162 95 28.94 95H10.36C7.78376 95 6.49564 95 5.51164 94.4986C4.6461 94.0576 3.94239 93.3539 3.50137 92.4884C3 91.5044 3 90.2162 3 87.64V60.36Z" fill="#FCFCFE" shape-rendering="crispEdges"/>
<path d="M22.8813 84.2847V77.9492H22.8203C22.568 78.4131 22.2425 78.8159 21.8438 79.1577C21.445 79.4995 20.9852 79.764 20.4644 79.9512C19.9435 80.1302 19.3779 80.2197 18.7676 80.2197C17.6934 80.2197 16.7493 79.9471 15.9355 79.4019C15.1217 78.8566 14.487 78.0876 14.0312 77.0947C13.5837 76.1019 13.3599 74.9422 13.3599 73.6157V73.6035C13.3599 72.2689 13.5877 71.1092 14.0435 70.1245C14.5073 69.1398 15.1462 68.3789 15.96 67.8418C16.7819 67.2965 17.73 67.0239 18.8042 67.0239C19.4064 67.0239 19.9598 67.1257 20.4644 67.3291C20.9771 67.5244 21.4328 67.8011 21.8315 68.1592C22.2303 68.5091 22.5599 68.9201 22.8203 69.3921H22.8813V67.2437H25.0054V84.2847H22.8813ZM19.2314 78.3398C19.9639 78.3398 20.6027 78.1486 21.1479 77.7661C21.7013 77.3755 22.1286 76.8262 22.4297 76.1182C22.7389 75.402 22.8936 74.5679 22.8936 73.6157V73.6035C22.8936 72.6432 22.7389 71.8132 22.4297 71.1133C22.1286 70.4134 21.7013 69.8722 21.1479 69.4897C20.6027 69.0991 19.9639 68.9038 19.2314 68.9038C18.4746 68.9038 17.8195 69.0951 17.2661 69.4775C16.7127 69.86 16.2855 70.4012 15.9844 71.1011C15.6833 71.8009 15.5327 72.6351 15.5327 73.6035V73.6157C15.5327 74.5923 15.6833 75.4346 15.9844 76.1426C16.2855 76.8506 16.7127 77.3958 17.2661 77.7783C17.8195 78.1527 18.4746 78.3398 19.2314 78.3398Z" fill="black"/>
</g>
<g filter="url(#filter24_d_0_1986)">
<path d="M42.3 60.36C42.3 57.7838 42.3 56.4956 42.8014 55.5116C43.2424 54.6461 43.9461 53.9424 44.8117 53.5014C45.7957 53 47.0838 53 49.66 53H68.24C70.8163 53 72.1044 53 73.0884 53.5014C73.954 53.9424 74.6577 54.6461 75.0987 55.5116C75.6 56.4956 75.6 57.7838 75.6 60.36V87.64C75.6 90.2162 75.6 91.5044 75.0987 92.4884C74.6577 93.3539 73.954 94.0576 73.0884 94.4986C72.1044 95 70.8163 95 68.24 95H49.66C47.0838 95 45.7957 95 44.8117 94.4986C43.9461 94.0576 43.2424 93.3539 42.8014 92.4884C42.3 91.5044 42.3 90.2162 42.3 87.64V60.36Z" fill="#FCFCFE" shape-rendering="crispEdges"/>
<path d="M53.7341 80L50.1575 67.2437H52.2815L54.8206 77.5952H54.8938L57.7747 67.2437H59.8132L62.7063 77.5952H62.7673L65.3186 67.2437H67.4182L63.866 80H61.7053L58.8245 70.1245H58.7512L55.8948 80H53.7341Z" fill="black"/>
</g>
<g filter="url(#filter25_d_0_1986)">
<path d="M81.6001 60.36C81.6001 57.7838 81.6001 56.4956 82.1015 55.5116C82.5425 54.6461 83.2462 53.9424 84.1117 53.5014C85.0957 53 86.3839 53 88.9601 53H107.54C110.116 53 111.404 53 112.388 53.5014C113.254 53.9424 113.958 54.6461 114.399 55.5116C114.9 56.4956 114.9 57.7838 114.9 60.36V87.64C114.9 90.2162 114.9 91.5044 114.399 92.4884C113.958 93.3539 113.254 94.0576 112.388 94.4986C111.404 95 110.116 95 107.54 95H88.9601C86.3839 95 85.0957 95 84.1117 94.4986C83.2462 94.0576 82.5425 93.3539 82.1015 92.4884C81.6001 91.5044 81.6001 90.2162 81.6001 87.64V60.36Z" fill="#FCFCFE" shape-rendering="crispEdges"/>
<path d="M98.2954 80.2441C97.0828 80.2441 96.0371 79.9756 95.1582 79.4385C94.2793 78.8932 93.6038 78.1283 93.1318 77.1436C92.6598 76.1589 92.4238 74.9992 92.4238 73.6646V73.6523C92.4238 72.3421 92.6598 71.1865 93.1318 70.1855C93.612 69.1846 94.2793 68.4033 95.1338 67.8418C95.9964 67.2803 97.0055 66.9995 98.1611 66.9995C99.3249 66.9995 100.326 67.2681 101.164 67.8052C102.002 68.3423 102.645 69.0951 103.093 70.0635C103.54 71.0238 103.764 72.1387 103.764 73.4082V74.2017H93.498V72.5293H102.714L101.64 74.0796V73.2495C101.64 72.2567 101.49 71.4388 101.188 70.7959C100.896 70.153 100.485 69.6729 99.9556 69.3555C99.4347 69.0381 98.8325 68.8794 98.1489 68.8794C97.4735 68.8794 96.8631 69.0462 96.3179 69.3799C95.7808 69.7135 95.3576 70.2059 95.0483 70.8569C94.7391 71.508 94.5845 72.3055 94.5845 73.2495V74.0796C94.5845 74.9748 94.735 75.7438 95.0361 76.3867C95.3454 77.0215 95.7808 77.5098 96.3423 77.8516C96.9119 78.1934 97.5793 78.3643 98.3442 78.3643C98.8895 78.3643 99.3737 78.2829 99.7969 78.1201C100.228 77.9574 100.586 77.7376 100.871 77.4609C101.156 77.1761 101.359 76.8587 101.481 76.5088L101.518 76.3989H103.605L103.581 76.5088C103.475 77.0215 103.272 77.5057 102.971 77.9614C102.678 78.409 102.299 78.8078 101.835 79.1577C101.38 79.4995 100.851 79.7681 100.249 79.9634C99.6545 80.1506 99.0034 80.2441 98.2954 80.2441Z" fill="black"/>
</g>
<g filter="url(#filter26_d_0_1986)">
<path d="M120.9 60.36C120.9 57.7838 120.9 56.4956 121.401 55.5116C121.842 54.6461 122.546 53.9424 123.412 53.5014C124.396 53 125.684 53 128.26 53H146.84C149.416 53 150.704 53 151.688 53.5014C152.554 53.9424 153.258 54.6461 153.699 55.5116C154.2 56.4956 154.2 57.7838 154.2 60.36V87.64C154.2 90.2162 154.2 91.5044 153.699 92.4884C153.258 93.3539 152.554 94.0576 151.688 94.4986C150.704 95 149.416 95 146.84 95H128.26C125.684 95 124.396 95 123.412 94.4986C122.546 94.0576 121.842 93.3539 121.401 92.4884C120.9 91.5044 120.9 90.2162 120.9 87.64V60.36Z" fill="#FCFCFE" shape-rendering="crispEdges"/>
<path d="M134.885 80V67.2437H137.009V69.3677H137.07C137.29 68.6353 137.664 68.0575 138.193 67.6343C138.73 67.2111 139.369 66.9995 140.11 66.9995C140.297 66.9995 140.468 67.0117 140.623 67.0361C140.777 67.0524 140.899 67.0687 140.989 67.085V69.1479C140.891 69.1154 140.736 69.0869 140.525 69.0625C140.321 69.0381 140.09 69.0259 139.829 69.0259C139.268 69.0259 138.771 69.152 138.34 69.4043C137.917 69.6484 137.587 70.0024 137.351 70.4663C137.123 70.922 137.009 71.4714 137.009 72.1143V80H134.885Z" fill="black"/>
</g>
<g filter="url(#filter27_d_0_1986)">
<path d="M160.2 60.36C160.2 57.7838 160.2 56.4956 160.701 55.5116C161.142 54.6461 161.846 53.9424 162.712 53.5014C163.696 53 164.984 53 167.56 53H186.14C188.716 53 190.004 53 190.988 53.5014C191.854 53.9424 192.558 54.6461 192.999 55.5116C193.5 56.4956 193.5 57.7838 193.5 60.36V87.64C193.5 90.2162 193.5 91.5044 192.999 92.4884C192.558 93.3539 191.854 94.0576 190.988 94.4986C190.004 95 188.716 95 186.14 95H167.56C164.984 95 163.696 95 162.712 94.4986C161.846 94.0576 161.142 93.3539 160.701 92.4884C160.2 91.5044 160.2 90.2162 160.2 87.64V60.36Z" fill="#FCFCFE" shape-rendering="crispEdges"/>
<path d="M178.494 80.2197C177.306 80.2197 176.419 79.9471 175.833 79.4019C175.255 78.8485 174.967 77.9614 174.967 76.7407V69.0015H173.074V67.2437H174.967V63.8135H177.164V67.2437H179.642V69.0015H177.164V76.6553C177.164 77.347 177.31 77.819 177.603 78.0713C177.896 78.3236 178.336 78.4497 178.922 78.4497C179.06 78.4497 179.186 78.4456 179.3 78.4375C179.422 78.4212 179.536 78.409 179.642 78.4009V80.1343C179.503 80.1506 179.329 80.1668 179.117 80.1831C178.913 80.2075 178.706 80.2197 178.494 80.2197Z" fill="black"/>
</g>
<g filter="url(#filter28_d_0_1986)">
<path d="M199.5 60.36C199.5 57.7838 199.5 56.4956 200.001 55.5116C200.442 54.6461 201.146 53.9424 202.012 53.5014C202.996 53 204.284 53 206.86 53H225.44C228.016 53 229.304 53 230.288 53.5014C231.154 53.9424 231.858 54.6461 232.299 55.5116C232.8 56.4956 232.8 57.7838 232.8 60.36V87.64C232.8 90.2162 232.8 91.5044 232.299 92.4884C231.858 93.3539 231.154 94.0576 230.288 94.4986C229.304 95 228.016 95 225.44 95H206.86C204.284 95 202.996 95 202.012 94.4986C201.146 94.0576 200.442 93.3539 200.001 92.4884C199.5 91.5044 199.5 90.2162 199.5 87.64V60.36Z" fill="#FCFCFE" shape-rendering="crispEdges"/>
<path d="M212.497 84.3213C212.301 84.3213 212.102 84.3091 211.898 84.2847C211.695 84.2684 211.524 84.248 211.386 84.2236V82.4902C211.475 82.5065 211.581 82.5228 211.703 82.5391C211.833 82.5553 211.964 82.5635 212.094 82.5635C212.761 82.5635 213.294 82.4373 213.693 82.1851C214.092 81.9409 214.417 81.4608 214.669 80.7446L214.926 80.0122L210.189 67.2437H212.46L216.171 78.4497L215.67 77.8516H216.354L215.854 78.4497L219.577 67.2437H221.811L216.83 80.7935C216.521 81.6235 216.175 82.2949 215.792 82.8076C215.418 83.3285 214.966 83.7109 214.438 83.9551C213.909 84.1992 213.262 84.3213 212.497 84.3213Z" fill="black"/>
</g>
<g filter="url(#filter29_d_0_1986)">
<path d="M238.8 60.36C238.8 57.7838 238.8 56.4956 239.301 55.5116C239.742 54.6461 240.446 53.9424 241.312 53.5014C242.296 53 243.584 53 246.16 53H264.74C267.316 53 268.604 53 269.588 53.5014C270.454 53.9424 271.158 54.6461 271.599 55.5116C272.1 56.4956 272.1 57.7838 272.1 60.36V87.64C272.1 90.2162 272.1 91.5044 271.599 92.4884C271.158 93.3539 270.454 94.0576 269.588 94.4986C268.604 95 267.316 95 264.74 95H246.16C243.584 95 242.296 95 241.312 94.4986C240.446 94.0576 239.742 93.3539 239.301 92.4884C238.8 91.5044 238.8 90.2162 238.8 87.64V60.36Z" fill="#FCFCFE" shape-rendering="crispEdges"/>
<path d="M254.409 80.2441C253.473 80.2441 252.676 80.0529 252.016 79.6704C251.365 79.2879 250.865 78.7427 250.515 78.0347C250.173 77.3267 250.002 76.4884 250.002 75.52V67.2437H252.126V75.1172C252.126 76.1751 252.366 76.9808 252.846 77.5342C253.327 78.0876 254.059 78.3643 255.044 78.3643C255.727 78.3643 256.317 78.2178 256.814 77.9248C257.318 77.6237 257.705 77.2005 257.973 76.6553C258.25 76.11 258.388 75.4753 258.388 74.751V67.2437H260.512V80H258.388V78.1689H258.315C257.982 78.7793 257.489 79.2798 256.838 79.6704C256.187 80.0529 255.377 80.2441 254.409 80.2441Z" fill="black"/>
</g>
<g filter="url(#filter30_d_0_1986)">
<path d="M278.1 60.36C278.1 57.7838 278.1 56.4956 278.601 55.5116C279.042 54.6461 279.746 53.9424 280.612 53.5014C281.596 53 282.884 53 285.46 53H304.04C306.616 53 307.904 53 308.888 53.5014C309.754 53.9424 310.458 54.6461 310.899 55.5116C311.4 56.4956 311.4 57.7838 311.4 60.36V87.64C311.4 90.2162 311.4 91.5044 310.899 92.4884C310.458 93.3539 309.754 94.0576 308.888 94.4986C307.904 95 306.616 95 304.04 95H285.46C282.884 95 281.596 95 280.612 94.4986C279.746 94.0576 279.042 93.3539 278.601 92.4884C278.1 91.5044 278.1 90.2162 278.1 87.64V60.36Z" fill="#FCFCFE" shape-rendering="crispEdges"/>
<path d="M293.538 80V67.2437H295.662V80H293.538ZM294.6 65.0342C294.226 65.0342 293.904 64.904 293.636 64.6436C293.375 64.3831 293.245 64.0658 293.245 63.6914C293.245 63.3089 293.375 62.9875 293.636 62.7271C293.904 62.4666 294.226 62.3364 294.6 62.3364C294.974 62.3364 295.292 62.4666 295.552 62.7271C295.813 62.9875 295.943 63.3089 295.943 63.6914C295.943 64.0658 295.813 64.3831 295.552 64.6436C295.292 64.904 294.974 65.0342 294.6 65.0342Z" fill="black"/>
</g>
<g filter="url(#filter31_d_0_1986)">
<path d="M317.4 60.36C317.4 57.7838 317.4 56.4956 317.901 55.5116C318.342 54.6461 319.046 53.9424 319.912 53.5014C320.896 53 322.184 53 324.76 53H343.34C345.916 53 347.204 53 348.188 53.5014C349.054 53.9424 349.758 54.6461 350.199 55.5116C350.7 56.4956 350.7 57.7838 350.7 60.36V87.64C350.7 90.2162 350.7 91.5044 350.199 92.4884C349.758 93.3539 349.054 94.0576 348.188 94.4986C347.204 95 345.916 95 343.34 95H324.76C322.184 95 320.896 95 319.912 94.4986C319.046 94.0576 318.342 93.3539 317.901 92.4884C317.4 91.5044 317.4 90.2162 317.4 87.64V60.36Z" fill="#FCFCFE" shape-rendering="crispEdges"/>
<path d="M333.9 80.2441C332.72 80.2441 331.686 79.9756 330.799 79.4385C329.912 78.8932 329.221 78.1283 328.724 77.1436C328.236 76.1507 327.992 74.9788 327.992 73.6279V73.6035C327.992 72.2445 328.236 71.0726 328.724 70.0879C329.221 69.0951 329.912 68.3341 330.799 67.8052C331.686 67.2681 332.716 66.9995 333.888 66.9995C335.076 66.9995 336.109 67.2681 336.988 67.8052C337.875 68.3341 338.563 69.0951 339.051 70.0879C339.548 71.0726 339.796 72.2445 339.796 73.6035V73.6279C339.796 74.9788 339.548 76.1507 339.051 77.1436C338.563 78.1283 337.879 78.8932 337 79.4385C336.122 79.9756 335.088 80.2441 333.9 80.2441ZM333.912 78.3643C334.677 78.3643 335.332 78.1771 335.877 77.8027C336.431 77.4284 336.858 76.8872 337.159 76.1792C337.468 75.4712 337.623 74.6208 337.623 73.6279V73.6035C337.623 72.6025 337.468 71.7521 337.159 71.0522C336.858 70.3442 336.427 69.8071 335.865 69.4409C335.312 69.0666 334.653 68.8794 333.888 68.8794C333.147 68.8794 332.496 69.0666 331.935 69.4409C331.373 69.8153 330.938 70.3524 330.628 71.0522C330.319 71.7521 330.165 72.6025 330.165 73.6035V73.6279C330.165 74.6208 330.319 75.4712 330.628 76.1792C330.938 76.8872 331.373 77.4284 331.935 77.8027C332.496 78.1771 333.155 78.3643 333.912 78.3643Z" fill="black"/>
</g>
<g filter="url(#filter32_d_0_1986)">
<path d="M356.7 60.36C356.7 57.7838 356.7 56.4956 357.201 55.5116C357.642 54.6461 358.346 53.9424 359.212 53.5014C360.196 53 361.484 53 364.06 53H382.64C385.216 53 386.504 53 387.488 53.5014C388.354 53.9424 389.058 54.6461 389.499 55.5116C390 56.4956 390 57.7838 390 60.36V87.64C390 90.2162 390 91.5044 389.499 92.4884C389.058 93.3539 388.354 94.0576 387.488 94.4986C386.504 95 385.216 95 382.64 95H364.06C361.484 95 360.196 95 359.212 94.4986C358.346 94.0576 357.642 93.3539 357.201 92.4884C356.7 91.5044 356.7 90.2162 356.7 87.64V60.36Z" fill="#FCFCFE" shape-rendering="crispEdges"/>
<path d="M367.695 84.2847V67.2437H369.819V69.3799H369.88C370.148 68.8835 370.482 68.4603 370.881 68.1104C371.279 67.7604 371.735 67.4878 372.248 67.2925C372.76 67.0972 373.318 66.9995 373.92 66.9995C375.011 66.9995 375.959 67.2721 376.764 67.8174C377.578 68.3626 378.209 69.1317 378.656 70.1245C379.104 71.1174 379.328 72.2811 379.328 73.6157V73.6279C379.328 74.9707 379.1 76.1385 378.644 77.1313C378.197 78.116 377.57 78.881 376.764 79.4263C375.967 79.9715 375.031 80.2441 373.957 80.2441C373.363 80.2441 372.801 80.1506 372.272 79.9634C371.751 79.7681 371.288 79.4954 370.881 79.1455C370.482 78.7874 370.148 78.3683 369.88 77.8882H369.819V84.2847H367.695ZM373.493 78.3643C374.25 78.3643 374.901 78.173 375.446 77.7905C375.999 77.3999 376.423 76.8506 376.716 76.1426C377.009 75.4346 377.155 74.5964 377.155 73.6279V73.6157C377.155 72.631 377.009 71.7887 376.716 71.0889C376.423 70.3809 375.999 69.8356 375.446 69.4531C374.901 69.0706 374.25 68.8794 373.493 68.8794C372.769 68.8794 372.126 69.0747 371.564 69.4653C371.011 69.856 370.575 70.4053 370.258 71.1133C369.949 71.8213 369.794 72.6554 369.794 73.6157V73.6279C369.794 74.5882 369.953 75.4224 370.27 76.1304C370.588 76.8384 371.023 77.3877 371.576 77.7783C372.13 78.1689 372.769 78.3643 373.493 78.3643Z" fill="black"/>
</g>
<path d="M33.45 300.39C31.34 300.39 29.1 300.09 27.06 299.57C26.68 298.99 26.4 298.37 26.27 297.74C28.42 298.35 30.92 298.77 33.46 298.77C36 298.77 38.5 298.35 40.66 297.74C40.51 298.37 40.24 298.99 39.87 299.57C37.83 300.08 35.59 300.39 33.46 300.39H33.45ZM33.45 304.46C37.97 304.46 41.6 301.14 42.1 297.2C42.21 296.41 41.69 296.05 40.99 296.25C38.45 297 36.07 297.42 33.45 297.42C30.83 297.42 28.47 297 25.92 296.25C25.22 296.05 24.71 296.41 24.81 297.2C25.3 301.14 28.92 304.46 33.45 304.46ZM37.35 294.28C38.18 294.28 38.92 293.53 38.92 292.47C38.92 291.41 38.18 290.65 37.35 290.65C36.52 290.65 35.79 291.41 35.79 292.47C35.79 293.53 36.52 294.28 37.35 294.28ZM29.53 294.28C30.37 294.28 31.11 293.53 31.11 292.47C31.11 291.41 30.37 290.65 29.53 290.65C28.69 290.65 27.99 291.41 27.99 292.47C27.99 293.53 28.7 294.28 29.53 294.28ZM33.46 306.63C27.26 306.63 22.29 301.66 22.29 295.45C22.29 289.24 27.25 284.28 33.45 284.28C39.65 284.28 44.64 289.25 44.64 295.46C44.64 301.67 39.67 306.64 33.46 306.64V306.63ZM33.46 308.91C40.82 308.91 46.92 302.81 46.92 295.45C46.92 288.09 40.82 282 33.45 282C26.08 282 20 288.1 20 295.46C20 302.82 26.1 308.92 33.46 308.92V308.91Z" fill="#3C3C43" fill-opacity="0.8"/>
<path d="M350.061 297.374V294.698C350.061 294.425 350.157 294.192 350.351 293.999C350.544 293.806 350.777 293.709 351.049 293.709C351.331 293.709 351.568 293.806 351.761 293.999C351.955 294.192 352.051 294.425 352.051 294.698V297.295C352.051 298.789 352.359 300.099 352.974 301.224C353.589 302.349 354.455 303.223 355.571 303.847C356.688 304.462 357.997 304.77 359.5 304.77C361.003 304.77 362.308 304.462 363.416 303.847C364.532 303.223 365.397 302.349 366.013 301.224C366.628 300.099 366.936 298.789 366.936 297.295V294.698C366.936 294.425 367.032 294.192 367.226 293.999C367.419 293.806 367.656 293.709 367.938 293.709C368.21 293.709 368.443 293.806 368.636 293.999C368.83 294.192 368.926 294.425 368.926 294.698V297.374C368.926 299.097 368.57 300.626 367.858 301.962C367.155 303.298 366.171 304.37 364.905 305.179C363.64 305.979 362.167 306.449 360.489 306.589V309.661H365.38C365.661 309.661 365.898 309.758 366.092 309.951C366.285 310.145 366.382 310.382 366.382 310.663C366.382 310.936 366.285 311.168 366.092 311.362C365.898 311.555 365.661 311.652 365.38 311.652H353.607C353.326 311.652 353.088 311.555 352.895 311.362C352.702 311.168 352.605 310.936 352.605 310.663C352.605 310.382 352.702 310.145 352.895 309.951C353.088 309.758 353.326 309.661 353.607 309.661H358.498V306.589C356.819 306.449 355.347 305.979 354.082 305.179C352.816 304.37 351.827 303.298 351.115 301.962C350.412 300.626 350.061 299.097 350.061 297.374ZM354.701 296.899V288.607C354.701 287.596 354.903 286.704 355.308 285.931C355.712 285.148 356.274 284.538 356.995 284.098C357.716 283.659 358.551 283.439 359.5 283.439C360.44 283.439 361.271 283.659 361.992 284.098C362.712 284.538 363.275 285.148 363.679 285.931C364.083 286.704 364.286 287.596 364.286 288.607V296.899C364.286 297.91 364.083 298.807 363.679 299.589C363.275 300.362 362.712 300.969 361.992 301.408C361.271 301.848 360.44 302.067 359.5 302.067C358.551 302.067 357.716 301.848 356.995 301.408C356.274 300.969 355.712 300.362 355.308 299.589C354.903 298.807 354.701 297.91 354.701 296.899ZM356.692 296.899C356.692 297.875 356.947 298.653 357.457 299.233C357.975 299.813 358.656 300.103 359.5 300.103C360.344 300.103 361.021 299.813 361.53 299.233C362.04 298.653 362.295 297.875 362.295 296.899V288.607C362.295 287.631 362.04 286.854 361.53 286.273C361.021 285.693 360.344 285.403 359.5 285.403C358.656 285.403 357.975 285.693 357.457 286.273C356.947 286.854 356.692 287.631 356.692 288.607V296.899Z" fill="#3C3C43" fill-opacity="0.8"/>
<rect width="139" height="5" rx="2.5" transform="matrix(-1 0 0 1 266 323)" fill="black"/>
<defs>
<filter id="filter1_d_0_1986" x="101" y="215" width="191" height="43" filterUnits="userSpaceOnUse" color-interpolation-filters="sRGB">
<feFlood flood-opacity="0" result="BackgroundImageFix"/>
<feColorMatrix in="SourceAlpha" type="matrix" values="0 0 0 0 0 0 0 0 0 0 0 0 0 0 0 0 0 0 127 0" result="hardAlpha"/>
<feOffset dy="1"/>
<feComposite in2="hardAlpha" operator="out"/>
<feColorMatrix type="matrix" values="0 0 0 0 0.537255 0 0 0 0 0.541176 0 0 0 0 0.552941 0 0 0 1 0"/>
<feBlend mode="normal" in2="BackgroundImageFix" result="effect1_dropShadow_0_1986"/>
<feBlend mode="normal" in="SourceGraphic" in2="effect1_dropShadow_0_1986" result="shape"/>
</filter>
<filter id="filter2_d_0_1986" x="101" y="215" width="191" height="43" filterUnits="userSpaceOnUse" color-interpolation-filters="sRGB">
<feFlood flood-opacity="0" result="BackgroundImageFix"/>
<feColorMatrix in="SourceAlpha" type="matrix" values="0 0 0 0 0 0 0 0 0 0 0 0 0 0 0 0 0 0 127 0" result="hardAlpha"/>
<feOffset dy="1"/>
<feComposite in2="hardAlpha" operator="out"/>
<feColorMatrix type="matrix" values="0 0 0 0 0.537255 0 0 0 0 0.541176 0 0 0 0 0.552941 0 0 0 1 0"/>
<feBlend mode="normal" in2="BackgroundImageFix" result="effect1_dropShadow_0_1986"/>
<feBlend mode="normal" in="SourceGraphic" in2="effect1_dropShadow_0_1986" result="shape"/>
</filter>
<filter id="filter3_d_0_1986" x="298" y="215" width="92" height="43" filterUnits="userSpaceOnUse" color-interpolation-filters="sRGB">
<feFlood flood-opacity="0" result="BackgroundImageFix"/>
<feColorMatrix in="SourceAlpha" type="matrix" values="0 0 0 0 0 0 0 0 0 0 0 0 0 0 0 0 0 0 127 0" result="hardAlpha"/>
<feOffset dy="1"/>
<feComposite in2="hardAlpha" operator="out"/>
<feColorMatrix type="matrix" values="0 0 0 0 0.537255 0 0 0 0 0.541176 0 0 0 0 0.552941 0 0 0 1 0"/>
<feBlend mode="normal" in2="BackgroundImageFix" result="effect1_dropShadow_0_1986"/>
<feBlend mode="normal" in="SourceGraphic" in2="effect1_dropShadow_0_1986" result="shape"/>
</filter>
<filter id="filter4_d_0_1986" x="3" y="215" width="92" height="43" filterUnits="userSpaceOnUse" color-interpolation-filters="sRGB">
<feFlood flood-opacity="0" result="BackgroundImageFix"/>
<feColorMatrix in="SourceAlpha" type="matrix" values="0 0 0 0 0 0 0 0 0 0 0 0 0 0 0 0 0 0 127 0" result="hardAlpha"/>
<feOffset dy="1"/>
<feComposite in2="hardAlpha" operator="out"/>
<feColorMatrix type="matrix" values="0 0 0 0 0.537255 0 0 0 0 0.541176 0 0 0 0 0.552941 0 0 0 1 0"/>
<feBlend mode="normal" in2="BackgroundImageFix" result="effect1_dropShadow_0_1986"/>
<feBlend mode="normal" in="SourceGraphic" in2="effect1_dropShadow_0_1986" result="shape"/>
</filter>
<filter id="filter5_d_0_1986" x="62" y="161" width="33.2856" height="43" filterUnits="userSpaceOnUse" color-interpolation-filters="sRGB">
<feFlood flood-opacity="0" result="BackgroundImageFix"/>
<feColorMatrix in="SourceAlpha" type="matrix" values="0 0 0 0 0 0 0 0 0 0 0 0 0 0 0 0 0 0 127 0" result="hardAlpha"/>
<feOffset dy="1"/>
<feComposite in2="hardAlpha" operator="out"/>
<feColorMatrix type="matrix" values="0 0 0 0 0.537255 0 0 0 0 0.541176 0 0 0 0 0.552941 0 0 0 1 0"/>
<feBlend mode="normal" in2="BackgroundImageFix" result="effect1_dropShadow_0_1986"/>
<feBlend mode="normal" in="SourceGraphic" in2="effect1_dropShadow_0_1986" result="shape"/>
</filter>
<filter id="filter6_d_0_1986" x="101.286" y="161" width="33.2856" height="43" filterUnits="userSpaceOnUse" color-interpolation-filters="sRGB">
<feFlood flood-opacity="0" result="BackgroundImageFix"/>
<feColorMatrix in="SourceAlpha" type="matrix" values="0 0 0 0 0 0 0 0 0 0 0 0 0 0 0 0 0 0 127 0" result="hardAlpha"/>
<feOffset dy="1"/>
<feComposite in2="hardAlpha" operator="out"/>
<feColorMatrix type="matrix" values="0 0 0 0 0.537255 0 0 0 0 0.541176 0 0 0 0 0.552941 0 0 0 1 0"/>
<feBlend mode="normal" in2="BackgroundImageFix" result="effect1_dropShadow_0_1986"/>
<feBlend mode="normal" in="SourceGraphic" in2="effect1_dropShadow_0_1986" result="shape"/>
</filter>
<filter id="filter7_d_0_1986" x="140.572" y="161" width="33.2856" height="43" filterUnits="userSpaceOnUse" color-interpolation-filters="sRGB">
<feFlood flood-opacity="0" result="BackgroundImageFix"/>
<feColorMatrix in="SourceAlpha" type="matrix" values="0 0 0 0 0 0 0 0 0 0 0 0 0 0 0 0 0 0 127 0" result="hardAlpha"/>
<feOffset dy="1"/>
<feComposite in2="hardAlpha" operator="out"/>
<feColorMatrix type="matrix" values="0 0 0 0 0.537255 0 0 0 0 0.541176 0 0 0 0 0.552941 0 0 0 1 0"/>
<feBlend mode="normal" in2="BackgroundImageFix" result="effect1_dropShadow_0_1986"/>
<feBlend mode="normal" in="SourceGraphic" in2="effect1_dropShadow_0_1986" result="shape"/>
</filter>
<filter id="filter8_d_0_1986" x="179.857" y="161" width="33.2856" height="43" filterUnits="userSpaceOnUse" color-interpolation-filters="sRGB">
<feFlood flood-opacity="0" result="BackgroundImageFix"/>
<feColorMatrix in="SourceAlpha" type="matrix" values="0 0 0 0 0 0 0 0 0 0 0 0 0 0 0 0 0 0 127 0" result="hardAlpha"/>
<feOffset dy="1"/>
<feComposite in2="hardAlpha" operator="out"/>
<feColorMatrix type="matrix" values="0 0 0 0 0.537255 0 0 0 0 0.541176 0 0 0 0 0.552941 0 0 0 1 0"/>
<feBlend mode="normal" in2="BackgroundImageFix" result="effect1_dropShadow_0_1986"/>
<feBlend mode="normal" in="SourceGraphic" in2="effect1_dropShadow_0_1986" result="shape"/>
</filter>
<filter id="filter9_d_0_1986" x="219.143" y="161" width="33.2856" height="43" filterUnits="userSpaceOnUse" color-interpolation-filters="sRGB">
<feFlood flood-opacity="0" result="BackgroundImageFix"/>
<feColorMatrix in="SourceAlpha" type="matrix" values="0 0 0 0 0 0 0 0 0 0 0 0 0 0 0 0 0 0 127 0" result="hardAlpha"/>
<feOffset dy="1"/>
<feComposite in2="hardAlpha" operator="out"/>
<feColorMatrix type="matrix" values="0 0 0 0 0.537255 0 0 0 0 0.541176 0 0 0 0 0.552941 0 0 0 1 0"/>
<feBlend mode="normal" in2="BackgroundImageFix" result="effect1_dropShadow_0_1986"/>
<feBlend mode="normal" in="SourceGraphic" in2="effect1_dropShadow_0_1986" result="shape"/>
</filter>
<filter id="filter10_d_0_1986" x="258.428" y="161" width="33.2856" height="43" filterUnits="userSpaceOnUse" color-interpolation-filters="sRGB">
<feFlood flood-opacity="0" result="BackgroundImageFix"/>
<feColorMatrix in="SourceAlpha" type="matrix" values="0 0 0 0 0 0 0 0 0 0 0 0 0 0 0 0 0 0 127 0" result="hardAlpha"/>
<feOffset dy="1"/>
<feComposite in2="hardAlpha" operator="out"/>
<feColorMatrix type="matrix" values="0 0 0 0 0.537255 0 0 0 0 0.541176 0 0 0 0 0.552941 0 0 0 1 0"/>
<feBlend mode="normal" in2="BackgroundImageFix" result="effect1_dropShadow_0_1986"/>
<feBlend mode="normal" in="SourceGraphic" in2="effect1_dropShadow_0_1986" result="shape"/>
</filter>
<filter id="filter11_d_0_1986" x="297.714" y="161" width="33.2856" height="43" filterUnits="userSpaceOnUse" color-interpolation-filters="sRGB">
<feFlood flood-opacity="0" result="BackgroundImageFix"/>
<feColorMatrix in="SourceAlpha" type="matrix" values="0 0 0 0 0 0 0 0 0 0 0 0 0 0 0 0 0 0 127 0" result="hardAlpha"/>
<feOffset dy="1"/>
<feComposite in2="hardAlpha" operator="out"/>
<feColorMatrix type="matrix" values="0 0 0 0 0.537255 0 0 0 0 0.541176 0 0 0 0 0.552941 0 0 0 1 0"/>
<feBlend mode="normal" in2="BackgroundImageFix" result="effect1_dropShadow_0_1986"/>
<feBlend mode="normal" in="SourceGraphic" in2="effect1_dropShadow_0_1986" result="shape"/>
</filter>
<filter id="filter12_d_0_1986" x="346" y="161" width="44" height="43" filterUnits="userSpaceOnUse" color-interpolation-filters="sRGB">
<feFlood flood-opacity="0" result="BackgroundImageFix"/>
<feColorMatrix in="SourceAlpha" type="matrix" values="0 0 0 0 0 0 0 0 0 0 0 0 0 0 0 0 0 0 127 0" result="hardAlpha"/>
<feOffset dy="1"/>
<feComposite in2="hardAlpha" operator="out"/>
<feColorMatrix type="matrix" values="0 0 0 0 0.537255 0 0 0 0 0.541176 0 0 0 0 0.552941 0 0 0 1 0"/>
<feBlend mode="normal" in2="BackgroundImageFix" result="effect1_dropShadow_0_1986"/>
<feBlend mode="normal" in="SourceGraphic" in2="effect1_dropShadow_0_1986" result="shape"/>
</filter>
<filter id="filter13_d_0_1986" x="3" y="161" width="44" height="43" filterUnits="userSpaceOnUse" color-interpolation-filters="sRGB">
<feFlood flood-opacity="0" result="BackgroundImageFix"/>
<feColorMatrix in="SourceAlpha" type="matrix" values="0 0 0 0 0 0 0 0 0 0 0 0 0 0 0 0 0 0 127 0" result="hardAlpha"/>
<feOffset dy="1"/>
<feComposite in2="hardAlpha" operator="out"/>
<feColorMatrix type="matrix" values="0 0 0 0 0.537255 0 0 0 0 0.541176 0 0 0 0 0.552941 0 0 0 1 0"/>
<feBlend mode="normal" in2="BackgroundImageFix" result="effect1_dropShadow_0_1986"/>
<feBlend mode="normal" in="SourceGraphic" in2="effect1_dropShadow_0_1986" result="shape"/>
</filter>
<filter id="filter14_d_0_1986" x="23" y="107" width="33.2222" height="43" filterUnits="userSpaceOnUse" color-interpolation-filters="sRGB">
<feFlood flood-opacity="0" result="BackgroundImageFix"/>
<feColorMatrix in="SourceAlpha" type="matrix" values="0 0 0 0 0 0 0 0 0 0 0 0 0 0 0 0 0 0 127 0" result="hardAlpha"/>
<feOffset dy="1"/>
<feComposite in2="hardAlpha" operator="out"/>
<feColorMatrix type="matrix" values="0 0 0 0 0.537255 0 0 0 0 0.541176 0 0 0 0 0.552941 0 0 0 1 0"/>
<feBlend mode="normal" in2="BackgroundImageFix" result="effect1_dropShadow_0_1986"/>
<feBlend mode="normal" in="SourceGraphic" in2="effect1_dropShadow_0_1986" result="shape"/>
</filter>
<filter id="filter15_d_0_1986" x="62.2222" y="107" width="33.2222" height="43" filterUnits="userSpaceOnUse" color-interpolation-filters="sRGB">
<feFlood flood-opacity="0" result="BackgroundImageFix"/>
<feColorMatrix in="SourceAlpha" type="matrix" values="0 0 0 0 0 0 0 0 0 0 0 0 0 0 0 0 0 0 127 0" result="hardAlpha"/>
<feOffset dy="1"/>
<feComposite in2="hardAlpha" operator="out"/>
<feColorMatrix type="matrix" values="0 0 0 0 0.537255 0 0 0 0 0.541176 0 0 0 0 0.552941 0 0 0 1 0"/>
<feBlend mode="normal" in2="BackgroundImageFix" result="effect1_dropShadow_0_1986"/>
<feBlend mode="normal" in="SourceGraphic" in2="effect1_dropShadow_0_1986" result="shape"/>
</filter>
<filter id="filter16_d_0_1986" x="101.444" y="107" width="33.2222" height="43" filterUnits="userSpaceOnUse" color-interpolation-filters="sRGB">
<feFlood flood-opacity="0" result="BackgroundImageFix"/>
<feColorMatrix in="SourceAlpha" type="matrix" values="0 0 0 0 0 0 0 0 0 0 0 0 0 0 0 0 0 0 127 0" result="hardAlpha"/>
<feOffset dy="1"/>
<feComposite in2="hardAlpha" operator="out"/>
<feColorMatrix type="matrix" values="0 0 0 0 0.537255 0 0 0 0 0.541176 0 0 0 0 0.552941 0 0 0 1 0"/>
<feBlend mode="normal" in2="BackgroundImageFix" result="effect1_dropShadow_0_1986"/>
<feBlend mode="normal" in="SourceGraphic" in2="effect1_dropShadow_0_1986" result="shape"/>
</filter>
<filter id="filter17_d_0_1986" x="140.667" y="107" width="33.2222" height="43" filterUnits="userSpaceOnUse" color-interpolation-filters="sRGB">
<feFlood flood-opacity="0" result="BackgroundImageFix"/>
<feColorMatrix in="SourceAlpha" type="matrix" values="0 0 0 0 0 0 0 0 0 0 0 0 0 0 0 0 0 0 127 0" result="hardAlpha"/>
<feOffset dy="1"/>
<feComposite in2="hardAlpha" operator="out"/>
<feColorMatrix type="matrix" values="0 0 0 0 0.537255 0 0 0 0 0.541176 0 0 0 0 0.552941 0 0 0 1 0"/>
<feBlend mode="normal" in2="BackgroundImageFix" result="effect1_dropShadow_0_1986"/>
<feBlend mode="normal" in="SourceGraphic" in2="effect1_dropShadow_0_1986" result="shape"/>
</filter>
<filter id="filter18_d_0_1986" x="179.889" y="107" width="33.2222" height="43" filterUnits="userSpaceOnUse" color-interpolation-filters="sRGB">
<feFlood flood-opacity="0" result="BackgroundImageFix"/>
<feColorMatrix in="SourceAlpha" type="matrix" values="0 0 0 0 0 0 0 0 0 0 0 0 0 0 0 0 0 0 127 0" result="hardAlpha"/>
<feOffset dy="1"/>
<feComposite in2="hardAlpha" operator="out"/>
<feColorMatrix type="matrix" values="0 0 0 0 0.537255 0 0 0 0 0.541176 0 0 0 0 0.552941 0 0 0 1 0"/>
<feBlend mode="normal" in2="BackgroundImageFix" result="effect1_dropShadow_0_1986"/>
<feBlend mode="normal" in="SourceGraphic" in2="effect1_dropShadow_0_1986" result="shape"/>
</filter>
<filter id="filter19_d_0_1986" x="219.111" y="107" width="33.2222" height="43" filterUnits="userSpaceOnUse" color-interpolation-filters="sRGB">
<feFlood flood-opacity="0" result="BackgroundImageFix"/>
<feColorMatrix in="SourceAlpha" type="matrix" values="0 0 0 0 0 0 0 0 0 0 0 0 0 0 0 0 0 0 127 0" result="hardAlpha"/>
<feOffset dy="1"/>
<feComposite in2="hardAlpha" operator="out"/>
<feColorMatrix type="matrix" values="0 0 0 0 0.537255 0 0 0 0 0.541176 0 0 0 0 0.552941 0 0 0 1 0"/>
<feBlend mode="normal" in2="BackgroundImageFix" result="effect1_dropShadow_0_1986"/>
<feBlend mode="normal" in="SourceGraphic" in2="effect1_dropShadow_0_1986" result="shape"/>
</filter>
<filter id="filter20_d_0_1986" x="258.333" y="107" width="33.2222" height="43" filterUnits="userSpaceOnUse" color-interpolation-filters="sRGB">
<feFlood flood-opacity="0" result="BackgroundImageFix"/>
<feColorMatrix in="SourceAlpha" type="matrix" values="0 0 0 0 0 0 0 0 0 0 0 0 0 0 0 0 0 0 127 0" result="hardAlpha"/>
<feOffset dy="1"/>
<feComposite in2="hardAlpha" operator="out"/>
<feColorMatrix type="matrix" values="0 0 0 0 0.537255 0 0 0 0 0.541176 0 0 0 0 0.552941 0 0 0 1 0"/>
<feBlend mode="normal" in2="BackgroundImageFix" result="effect1_dropShadow_0_1986"/>
<feBlend mode="normal" in="SourceGraphic" in2="effect1_dropShadow_0_1986" result="shape"/>
</filter>
<filter id="filter21_d_0_1986" x="297.556" y="107" width="33.2222" height="43" filterUnits="userSpaceOnUse" color-interpolation-filters="sRGB">
<feFlood flood-opacity="0" result="BackgroundImageFix"/>
<feColorMatrix in="SourceAlpha" type="matrix" values="0 0 0 0 0 0 0 0 0 0 0 0 0 0 0 0 0 0 127 0" result="hardAlpha"/>
<feOffset dy="1"/>
<feComposite in2="hardAlpha" operator="out"/>
<feColorMatrix type="matrix" values="0 0 0 0 0.537255 0 0 0 0 0.541176 0 0 0 0 0.552941 0 0 0 1 0"/>
<feBlend mode="normal" in2="BackgroundImageFix" result="effect1_dropShadow_0_1986"/>
<feBlend mode="normal" in="SourceGraphic" in2="effect1_dropShadow_0_1986" result="shape"/>
</filter>
<filter id="filter22_d_0_1986" x="336.778" y="107" width="33.2222" height="43" filterUnits="userSpaceOnUse" color-interpolation-filters="sRGB">
<feFlood flood-opacity="0" result="BackgroundImageFix"/>
<feColorMatrix in="SourceAlpha" type="matrix" values="0 0 0 0 0 0 0 0 0 0 0 0 0 0 0 0 0 0 127 0" result="hardAlpha"/>
<feOffset dy="1"/>
<feComposite in2="hardAlpha" operator="out"/>
<feColorMatrix type="matrix" values="0 0 0 0 0.537255 0 0 0 0 0.541176 0 0 0 0 0.552941 0 0 0 1 0"/>
<feBlend mode="normal" in2="BackgroundImageFix" result="effect1_dropShadow_0_1986"/>
<feBlend mode="normal" in="SourceGraphic" in2="effect1_dropShadow_0_1986" result="shape"/>
</filter>
<filter id="filter23_d_0_1986" x="3" y="53" width="33.3" height="43" filterUnits="userSpaceOnUse" color-interpolation-filters="sRGB">
<feFlood flood-opacity="0" result="BackgroundImageFix"/>
<feColorMatrix in="SourceAlpha" type="matrix" values="0 0 0 0 0 0 0 0 0 0 0 0 0 0 0 0 0 0 127 0" result="hardAlpha"/>
<feOffset dy="1"/>
<feComposite in2="hardAlpha" operator="out"/>
<feColorMatrix type="matrix" values="0 0 0 0 0.537255 0 0 0 0 0.541176 0 0 0 0 0.552941 0 0 0 1 0"/>
<feBlend mode="normal" in2="BackgroundImageFix" result="effect1_dropShadow_0_1986"/>
<feBlend mode="normal" in="SourceGraphic" in2="effect1_dropShadow_0_1986" result="shape"/>
</filter>
<filter id="filter24_d_0_1986" x="42.3" y="53" width="33.3" height="43" filterUnits="userSpaceOnUse" color-interpolation-filters="sRGB">
<feFlood flood-opacity="0" result="BackgroundImageFix"/>
<feColorMatrix in="SourceAlpha" type="matrix" values="0 0 0 0 0 0 0 0 0 0 0 0 0 0 0 0 0 0 127 0" result="hardAlpha"/>
<feOffset dy="1"/>
<feComposite in2="hardAlpha" operator="out"/>
<feColorMatrix type="matrix" values="0 0 0 0 0.537255 0 0 0 0 0.541176 0 0 0 0 0.552941 0 0 0 1 0"/>
<feBlend mode="normal" in2="BackgroundImageFix" result="effect1_dropShadow_0_1986"/>
<feBlend mode="normal" in="SourceGraphic" in2="effect1_dropShadow_0_1986" result="shape"/>
</filter>
<filter id="filter25_d_0_1986" x="81.6001" y="53" width="33.3" height="43" filterUnits="userSpaceOnUse" color-interpolation-filters="sRGB">
<feFlood flood-opacity="0" result="BackgroundImageFix"/>
<feColorMatrix in="SourceAlpha" type="matrix" values="0 0 0 0 0 0 0 0 0 0 0 0 0 0 0 0 0 0 127 0" result="hardAlpha"/>
<feOffset dy="1"/>
<feComposite in2="hardAlpha" operator="out"/>
<feColorMatrix type="matrix" values="0 0 0 0 0.537255 0 0 0 0 0.541176 0 0 0 0 0.552941 0 0 0 1 0"/>
<feBlend mode="normal" in2="BackgroundImageFix" result="effect1_dropShadow_0_1986"/>
<feBlend mode="normal" in="SourceGraphic" in2="effect1_dropShadow_0_1986" result="shape"/>
</filter>
<filter id="filter26_d_0_1986" x="120.9" y="53" width="33.3" height="43" filterUnits="userSpaceOnUse" color-interpolation-filters="sRGB">
<feFlood flood-opacity="0" result="BackgroundImageFix"/>
<feColorMatrix in="SourceAlpha" type="matrix" values="0 0 0 0 0 0 0 0 0 0 0 0 0 0 0 0 0 0 127 0" result="hardAlpha"/>
<feOffset dy="1"/>
<feComposite in2="hardAlpha" operator="out"/>
<feColorMatrix type="matrix" values="0 0 0 0 0.537255 0 0 0 0 0.541176 0 0 0 0 0.552941 0 0 0 1 0"/>
<feBlend mode="normal" in2="BackgroundImageFix" result="effect1_dropShadow_0_1986"/>
<feBlend mode="normal" in="SourceGraphic" in2="effect1_dropShadow_0_1986" result="shape"/>
</filter>
<filter id="filter27_d_0_1986" x="160.2" y="53" width="33.3" height="43" filterUnits="userSpaceOnUse" color-interpolation-filters="sRGB">
<feFlood flood-opacity="0" result="BackgroundImageFix"/>
<feColorMatrix in="SourceAlpha" type="matrix" values="0 0 0 0 0 0 0 0 0 0 0 0 0 0 0 0 0 0 127 0" result="hardAlpha"/>
<feOffset dy="1"/>
<feComposite in2="hardAlpha" operator="out"/>
<feColorMatrix type="matrix" values="0 0 0 0 0.537255 0 0 0 0 0.541176 0 0 0 0 0.552941 0 0 0 1 0"/>
<feBlend mode="normal" in2="BackgroundImageFix" result="effect1_dropShadow_0_1986"/>
<feBlend mode="normal" in="SourceGraphic" in2="effect1_dropShadow_0_1986" result="shape"/>
</filter>
<filter id="filter28_d_0_1986" x="199.5" y="53" width="33.3" height="43" filterUnits="userSpaceOnUse" color-interpolation-filters="sRGB">
<feFlood flood-opacity="0" result="BackgroundImageFix"/>
<feColorMatrix in="SourceAlpha" type="matrix" values="0 0 0 0 0 0 0 0 0 0 0 0 0 0 0 0 0 0 127 0" result="hardAlpha"/>
<feOffset dy="1"/>
<feComposite in2="hardAlpha" operator="out"/>
<feColorMatrix type="matrix" values="0 0 0 0 0.537255 0 0 0 0 0.541176 0 0 0 0 0.552941 0 0 0 1 0"/>
<feBlend mode="normal" in2="BackgroundImageFix" result="effect1_dropShadow_0_1986"/>
<feBlend mode="normal" in="SourceGraphic" in2="effect1_dropShadow_0_1986" result="shape"/>
</filter>
<filter id="filter29_d_0_1986" x="238.8" y="53" width="33.3" height="43" filterUnits="userSpaceOnUse" color-interpolation-filters="sRGB">
<feFlood flood-opacity="0" result="BackgroundImageFix"/>
<feColorMatrix in="SourceAlpha" type="matrix" values="0 0 0 0 0 0 0 0 0 0 0 0 0 0 0 0 0 0 127 0" result="hardAlpha"/>
<feOffset dy="1"/>
<feComposite in2="hardAlpha" operator="out"/>
<feColorMatrix type="matrix" values="0 0 0 0 0.537255 0 0 0 0 0.541176 0 0 0 0 0.552941 0 0 0 1 0"/>
<feBlend mode="normal" in2="BackgroundImageFix" result="effect1_dropShadow_0_1986"/>
<feBlend mode="normal" in="SourceGraphic" in2="effect1_dropShadow_0_1986" result="shape"/>
</filter>
<filter id="filter30_d_0_1986" x="278.1" y="53" width="33.3" height="43" filterUnits="userSpaceOnUse" color-interpolation-filters="sRGB">
<feFlood flood-opacity="0" result="BackgroundImageFix"/>
<feColorMatrix in="SourceAlpha" type="matrix" values="0 0 0 0 0 0 0 0 0 0 0 0 0 0 0 0 0 0 127 0" result="hardAlpha"/>
<feOffset dy="1"/>
<feComposite in2="hardAlpha" operator="out"/>
<feColorMatrix type="matrix" values="0 0 0 0 0.537255 0 0 0 0 0.541176 0 0 0 0 0.552941 0 0 0 1 0"/>
<feBlend mode="normal" in2="BackgroundImageFix" result="effect1_dropShadow_0_1986"/>
<feBlend mode="normal" in="SourceGraphic" in2="effect1_dropShadow_0_1986" result="shape"/>
</filter>
<filter id="filter31_d_0_1986" x="317.4" y="53" width="33.3" height="43" filterUnits="userSpaceOnUse" color-interpolation-filters="sRGB">
<feFlood flood-opacity="0" result="BackgroundImageFix"/>
<feColorMatrix in="SourceAlpha" type="matrix" values="0 0 0 0 0 0 0 0 0 0 0 0 0 0 0 0 0 0 127 0" result="hardAlpha"/>
<feOffset dy="1"/>
<feComposite in2="hardAlpha" operator="out"/>
<feColorMatrix type="matrix" values="0 0 0 0 0.537255 0 0 0 0 0.541176 0 0 0 0 0.552941 0 0 0 1 0"/>
<feBlend mode="normal" in2="BackgroundImageFix" result="effect1_dropShadow_0_1986"/>
<feBlend mode="normal" in="SourceGraphic" in2="effect1_dropShadow_0_1986" result="shape"/>
</filter>
<filter id="filter32_d_0_1986" x="356.7" y="53" width="33.3" height="43" filterUnits="userSpaceOnUse" color-interpolation-filters="sRGB">
<feFlood flood-opacity="0" result="BackgroundImageFix"/>
<feColorMatrix in="SourceAlpha" type="matrix" values="0 0 0 0 0 0 0 0 0 0 0 0 0 0 0 0 0 0 127 0" result="hardAlpha"/>
<feOffset dy="1"/>
<feComposite in2="hardAlpha" operator="out"/>
<feColorMatrix type="matrix" values="0 0 0 0 0.537255 0 0 0 0 0.541176 0 0 0 0 0.552941 0 0 0 1 0"/>
<feBlend mode="normal" in2="BackgroundImageFix" result="effect1_dropShadow_0_1986"/>
<feBlend mode="normal" in="SourceGraphic" in2="effect1_dropShadow_0_1986" result="shape"/>
</filter>
</defs>
</svg>
